<mxfile host="app.diagrams.net" modified="2024-01-14T15:26:43.986Z" agent="Mozilla/5.0 (Windows NT 10.0; Win64; x64) AppleWebKit/537.36 (KHTML, like Gecko) Chrome/120.0.0.0 Safari/537.36" version="22.1.18" etag="P27Ag7KjaaR2S71AyrCp" type="device">
  <diagram name="Sayfa-1" id="Page-1">
    <mxGraphModel dx="1167" dy="641" grid="1" gridSize="10" guides="1" tooltips="1" connect="1" arrows="1" fold="1" page="1" pageScale="1" pageWidth="827" pageHeight="1169" math="0" shadow="0">
      <root>
        <mxCell id="0" />
        <mxCell id="1" parent="0" />
        <UserObject label="" tags="Arkaplan" id="2">
          <mxCell style="vsdxID=13;fillColor=#FFFFFF;gradientColor=none;shape=stencil(nZBLDoAgDERP0z3SIyjew0SURgSD+Lu9kMZoXLhwN9O+tukAlrNpJg1SzDH4QW/URgNYgZTkjA4UkwJUgGXng+6DX1zLfmoymdXo17xh5zmRJ6Q42BWCfc2oJfdAr+Yv+AP9Cb7OJ3H/2JG1HNGz/84klThPVCc=);points=[[0.5,1.67,0],[0.5,2.33,0],[0.5,3,0],[0.5,3.78,0],[0.5,4.33,0],[0.5,5.44,0],[0.5,6,0],[0.5,6.56,0],[0.5,7.33,0],[0.5,8.22,0],[0.5,8.78,0],[0.5,9.33,0],[0.5,10.22,0],[0.5,11,0],[0.5,11.29,0],[0.5,11.29,0],[0.5,11.29,0],[0.5,11.29,0],[0.5,11.29,0],[0.5,11.29,0],[0.5,11.29,0],[0.5,11.29,0],[0.5,11.29,0],[0.5,11.29,0],[0.5,11.29,0],[0.5,11.29,0],[0.5,11.29,0],[0.5,11.29,0],[0.5,11.29,0],[0.5,11.29,0],[0.5,11.29,0],[0.5,11.29,0],[0.5,11.29,0],[0.5,11.29,0],[0.5,11.29,0],[0.5,11.29,0],[0.5,11.29,0],[0.5,11.29,0],[0.5,11.29,0]];labelBackgroundColor=none;rounded=0;html=1;whiteSpace=wrap;" parent="1" vertex="1">
            <mxGeometry x="914" y="82" width="72" height="36" as="geometry" />
          </mxCell>
        </UserObject>
        <mxCell id="3" style="vsdxID=14;fillColor=#FFFFFF;gradientColor=none;shape=stencil(nZBLDoAgDERP0z3SIyjew0SURgSD+Lu9kMZoXLhwN9O+tukAlrNpJg1SzDH4QW/URgNYgZTkjA4UkwJUgGXng+6DX1zLfmoymdXo17xh5zmRJ6Q42BWCfc2oJfdAr+Yv+AP9Cb7OJ3H/2JG1HNGz/84klThPVCc=);points=[[0.5,1.67,0],[0.5,2.33,0],[0.5,3,0],[0.5,3.78,0],[0.5,4.33,0],[0.5,5.44,0],[0.5,6,0],[0.5,6.56,0],[0.5,7.33,0],[0.5,8.22,0],[0.5,8.78,0],[0.5,9.33,0],[0.5,10.22,0],[0.5,11,0],[0.5,11.29,0],[0.5,11.29,0],[0.5,11.29,0],[0.5,11.29,0],[0.5,11.29,0],[0.5,11.29,0],[0.5,11.29,0],[0.5,11.29,0],[0.5,11.29,0],[0.5,11.29,0],[0.5,11.29,0],[0.5,11.29,0],[0.5,11.29,0],[0.5,11.29,0],[0.5,11.29,0],[0.5,11.29,0],[0.5,11.29,0],[0.5,11.29,0],[0.5,11.29,0],[0.5,11.29,0],[0.5,11.29,0],[0.5,11.29,0],[0.5,11.29,0],[0.5,11.29,0],[0.5,11.29,0]];labelBackgroundColor=none;rounded=0;html=1;whiteSpace=wrap;" parent="2" vertex="1">
          <mxGeometry width="72" height="36" as="geometry" />
        </mxCell>
        <mxCell id="4" style="vsdxID=15;fillColor=#FFFFFF;gradientColor=none;shape=stencil(1VFBDsIgEHwNRxKE+IJa/7GxSyFiaRa07e+FLImtB+/eZnZmdgkjTJcczCi0SpniHRc/ZCfMRWjtJ4fkc0HC9MJ0NhKOFJ/TwHyG6qzoEV91w8q5s6oRrTamJ8X8yl6gW9GoeZuVtgP9vUitElafJMUM2cfpEA1AI8pyRNoAYwuylBbEeTf+h2cV8Plm60Pglvb6dy1lxJWa/g0=);points=[[0.5,1.67,0],[0.5,2.33,0],[0.5,3,0],[0.5,3.78,0],[0.5,4.33,0],[0.5,5.44,0],[0.5,6,0],[0.5,6.56,0],[0.5,7.33,0],[0.5,8.22,0],[0.5,8.78,0],[0.5,9.33,0],[0.5,10.22,0],[0.5,11,0],[0.5,11.29,0],[0.5,11.29,0],[0.5,11.29,0],[0.5,11.29,0],[0.5,11.29,0],[0.5,11.29,0],[0.5,11.29,0],[0.5,11.29,0],[0.5,11.29,0],[0.5,11.29,0],[0.5,11.29,0],[0.5,11.29,0],[0.5,11.29,0],[0.5,11.29,0],[0.5,11.29,0],[0.5,11.29,0],[0.5,11.29,0],[0.5,11.29,0],[0.5,11.29,0],[0.5,11.29,0],[0.5,11.29,0],[0.5,11.29,0],[0.5,11.29,0],[0.5,11.29,0],[0.5,11.29,0]];labelBackgroundColor=none;rounded=0;html=1;whiteSpace=wrap;" parent="2" vertex="1">
          <mxGeometry x="24" y="-5" width="24" height="1" as="geometry" />
        </mxCell>
        <mxCell id="5" value="" style="vsdxID=17;edgeStyle=none;dashed=1;startArrow=none;endArrow=none;startSize=5;endSize=5;spacingTop=0;spacingBottom=0;spacingLeft=0;spacingRight=0;verticalAlign=middle;html=1;labelBackgroundColor=#ffffff;rounded=0;" parent="2" edge="1">
          <mxGeometry relative="1" as="geometry">
            <Array as="points" />
            <mxPoint x="36" y="36" as="sourcePoint" />
            <mxPoint x="36" y="730" as="targetPoint" />
          </mxGeometry>
        </mxCell>
        <mxCell id="6" value="&lt;div style=&quot;font-size: 1px&quot;&gt;&lt;font style=&quot;font-size:16.93px;font-family:Calibri;color:#000000;direction:ltr;letter-spacing:0px;line-height:120%;opacity:1&quot;&gt;&lt;b&gt;Seferler&lt;br/&gt;&lt;/b&gt;&lt;/font&gt;&lt;/div&gt;" style="text;vsdxID=13;fillColor=none;gradientColor=none;points=[[0.5,1.67,0],[0.5,2.33,0],[0.5,3,0],[0.5,3.78,0],[0.5,4.33,0],[0.5,5.44,0],[0.5,6,0],[0.5,6.56,0],[0.5,7.33,0],[0.5,8.22,0],[0.5,8.78,0],[0.5,9.33,0],[0.5,10.22,0],[0.5,11,0],[0.5,11.29,0],[0.5,11.29,0],[0.5,11.29,0],[0.5,11.29,0],[0.5,11.29,0],[0.5,11.29,0],[0.5,11.29,0],[0.5,11.29,0],[0.5,11.29,0],[0.5,11.29,0],[0.5,11.29,0],[0.5,11.29,0],[0.5,11.29,0],[0.5,11.29,0],[0.5,11.29,0],[0.5,11.29,0],[0.5,11.29,0],[0.5,11.29,0],[0.5,11.29,0],[0.5,11.29,0],[0.5,11.29,0],[0.5,11.29,0],[0.5,11.29,0],[0.5,11.29,0],[0.5,11.29,0]];labelBackgroundColor=none;rounded=0;html=1;whiteSpace=wrap;verticalAlign=middle;align=center;overflow=width;strokeColor=none;;html=1;" parent="2" vertex="1">
          <mxGeometry width="72" height="36" as="geometry" />
        </mxCell>
        <UserObject label="" tags="Arkaplan" id="7">
          <mxCell style="vsdxID=21;fillColor=#FFFFFF;gradientColor=none;shape=stencil(nZBLDoAgDERP0z3SIyjew0SURgSD+Lu9kMZoXLhwN9O+tukAlrNpJg1SzDH4QW/URgNYgZTkjA4UkwJUgGXng+6DX1zLfmoymdXo17xh5zmRJ6Q42BWCfc2oJfdAr+Yv+AP9Cb7OJ3H/2JG1HNGz/84klThPVCc=);points=[[0.5,1.67,0],[0.5,2.33,0],[0.5,3,0],[0.5,3.78,0],[0.5,4.33,0],[0.5,5.44,0],[0.5,6,0],[0.5,6.56,0],[0.5,7.33,0],[0.5,8.22,0],[0.5,8.78,0],[0.5,9.33,0],[0.5,10.22,0],[0.5,11,0],[0.5,11.29,0],[0.5,11.29,0],[0.5,11.29,0],[0.5,11.29,0],[0.5,11.29,0],[0.5,11.29,0],[0.5,11.29,0],[0.5,11.29,0],[0.5,11.29,0],[0.5,11.29,0],[0.5,11.29,0],[0.5,11.29,0],[0.5,11.29,0],[0.5,11.29,0],[0.5,11.29,0],[0.5,11.29,0],[0.5,11.29,0],[0.5,11.29,0],[0.5,11.29,0],[0.5,11.29,0],[0.5,11.29,0],[0.5,11.29,0],[0.5,11.29,0],[0.5,11.29,0],[0.5,11.29,0]];labelBackgroundColor=none;rounded=0;html=1;whiteSpace=wrap;" parent="1" vertex="1">
            <mxGeometry x="36" y="82" width="72" height="36" as="geometry" />
          </mxCell>
        </UserObject>
        <mxCell id="8" style="vsdxID=22;fillColor=#FFFFFF;gradientColor=none;shape=stencil(nZBLDoAgDERP0z3SIyjew0SURgSD+Lu9kMZoXLhwN9O+tukAlrNpJg1SzDH4QW/URgNYgZTkjA4UkwJUgGXng+6DX1zLfmoymdXo17xh5zmRJ6Q42BWCfc2oJfdAr+Yv+AP9Cb7OJ3H/2JG1HNGz/84klThPVCc=);points=[[0.5,1.67,0],[0.5,2.33,0],[0.5,3,0],[0.5,3.78,0],[0.5,4.33,0],[0.5,5.44,0],[0.5,6,0],[0.5,6.56,0],[0.5,7.33,0],[0.5,8.22,0],[0.5,8.78,0],[0.5,9.33,0],[0.5,10.22,0],[0.5,11,0],[0.5,11.29,0],[0.5,11.29,0],[0.5,11.29,0],[0.5,11.29,0],[0.5,11.29,0],[0.5,11.29,0],[0.5,11.29,0],[0.5,11.29,0],[0.5,11.29,0],[0.5,11.29,0],[0.5,11.29,0],[0.5,11.29,0],[0.5,11.29,0],[0.5,11.29,0],[0.5,11.29,0],[0.5,11.29,0],[0.5,11.29,0],[0.5,11.29,0],[0.5,11.29,0],[0.5,11.29,0],[0.5,11.29,0],[0.5,11.29,0],[0.5,11.29,0],[0.5,11.29,0],[0.5,11.29,0]];labelBackgroundColor=none;rounded=0;html=1;whiteSpace=wrap;" parent="7" vertex="1">
          <mxGeometry width="72" height="36" as="geometry" />
        </mxCell>
        <mxCell id="9" style="vsdxID=23;fillColor=#FFFFFF;gradientColor=none;shape=stencil(tZTNDoIwDICfZkeSsQXFM+J7LDJgcTJSpuDbu6USgQhBord2/dr1LyU8aUpRS8JoY8FcZKsyWxJ+JIypqpSgrJMITwlPcgOyAHOrMtRr4UkvXc3dR+jQj1HvwugD1ZCifkJWq2qejdaj+wV0K8kXyHCMsmgePaxH++asy2B9XfFmdGkE8ReTjbazux+FXV7E8dLyKTtEBZydCSabAH3HUO1GrZ4Eol0gOtUEYKywylSj7dMCChm4T4Jci+Llh6amlbIePG9O63N9f0nLCe/TkCut8bIM7dNT4p7wDPH0CQ==);points=[[0.5,1.67,0],[0.5,2.33,0],[0.5,3,0],[0.5,3.78,0],[0.5,4.33,0],[0.5,5.44,0],[0.5,6,0],[0.5,6.56,0],[0.5,7.33,0],[0.5,8.22,0],[0.5,8.78,0],[0.5,9.33,0],[0.5,10.22,0],[0.5,11,0],[0.5,11.29,0],[0.5,11.29,0],[0.5,11.29,0],[0.5,11.29,0],[0.5,11.29,0],[0.5,11.29,0],[0.5,11.29,0],[0.5,11.29,0],[0.5,11.29,0],[0.5,11.29,0],[0.5,11.29,0],[0.5,11.29,0],[0.5,11.29,0],[0.5,11.29,0],[0.5,11.29,0],[0.5,11.29,0],[0.5,11.29,0],[0.5,11.29,0],[0.5,11.29,0],[0.5,11.29,0],[0.5,11.29,0],[0.5,11.29,0],[0.5,11.29,0],[0.5,11.29,0],[0.5,11.29,0]];labelBackgroundColor=none;rounded=0;html=1;whiteSpace=wrap;" parent="7" vertex="1">
          <mxGeometry x="24" y="-53" width="24" height="48" as="geometry" />
        </mxCell>
        <mxCell id="10" value="" style="vsdxID=25;edgeStyle=none;dashed=1;startArrow=none;endArrow=none;startSize=5;endSize=5;spacingTop=0;spacingBottom=0;spacingLeft=0;spacingRight=0;verticalAlign=middle;html=1;labelBackgroundColor=#ffffff;rounded=0;" parent="7" edge="1">
          <mxGeometry relative="1" as="geometry">
            <Array as="points" />
            <mxPoint x="36" y="36" as="sourcePoint" />
            <mxPoint x="36" y="722" as="targetPoint" />
          </mxGeometry>
        </mxCell>
        <mxCell id="11" value="&lt;div style=&quot;font-size: 1px&quot;&gt;&lt;font style=&quot;font-size:16.93px;font-family:Calibri;color:#000000;direction:ltr;letter-spacing:0px;line-height:120%;opacity:1&quot;&gt;&lt;b&gt;User&lt;br/&gt;&lt;/b&gt;&lt;/font&gt;&lt;/div&gt;" style="text;vsdxID=21;fillColor=none;gradientColor=none;points=[[0.5,1.67,0],[0.5,2.33,0],[0.5,3,0],[0.5,3.78,0],[0.5,4.33,0],[0.5,5.44,0],[0.5,6,0],[0.5,6.56,0],[0.5,7.33,0],[0.5,8.22,0],[0.5,8.78,0],[0.5,9.33,0],[0.5,10.22,0],[0.5,11,0],[0.5,11.29,0],[0.5,11.29,0],[0.5,11.29,0],[0.5,11.29,0],[0.5,11.29,0],[0.5,11.29,0],[0.5,11.29,0],[0.5,11.29,0],[0.5,11.29,0],[0.5,11.29,0],[0.5,11.29,0],[0.5,11.29,0],[0.5,11.29,0],[0.5,11.29,0],[0.5,11.29,0],[0.5,11.29,0],[0.5,11.29,0],[0.5,11.29,0],[0.5,11.29,0],[0.5,11.29,0],[0.5,11.29,0],[0.5,11.29,0],[0.5,11.29,0],[0.5,11.29,0],[0.5,11.29,0]];labelBackgroundColor=none;rounded=0;html=1;whiteSpace=wrap;verticalAlign=middle;align=center;overflow=width;strokeColor=none;;html=1;" parent="7" vertex="1">
          <mxGeometry width="72" height="36" as="geometry" />
        </mxCell>
        <UserObject label="" tags="Arkaplan" id="12">
          <mxCell style="vsdxID=26;fillColor=#FFFFFF;gradientColor=none;shape=stencil(nZBLDoAgDERP0z3SIyjew0SURgSD+Lu9kMZoXLhwN9O+tukAlrNpJg1SzDH4QW/URgNYgZTkjA4UkwJUgGXng+6DX1zLfmoymdXo17xh5zmRJ6Q42BWCfc2oJfdAr+Yv+AP9Cb7OJ3H/2JG1HNGz/84klThPVCc=);points=[[0.5,11.56,0],[0.5,12.11,0],[0.5,13,0],[0.5,13.78,0],[0.5,14.44,0],[0.5,14.89,0],[0.5,15.78,0],[0.5,16.56,0],[0.5,17.22,0],[0.5,17.67,0],[0.5,18.67,0],[0.5,19.33,0],[0.5,20,0],[0.5,20.22,0],[0.5,20.22,0],[0.5,20.22,0],[0.5,20.22,0],[0.5,20.22,0],[0.5,20.22,0],[0.5,20.22,0],[0.5,20.22,0],[0.5,20.22,0],[0.5,20.22,0],[0.5,20.22,0],[0.5,20.22,0]];labelBackgroundColor=none;rounded=0;html=1;whiteSpace=wrap;" parent="1" vertex="1">
            <mxGeometry x="690" y="82" width="80" height="36" as="geometry" />
          </mxCell>
        </UserObject>
        <mxCell id="13" style="vsdxID=27;fillColor=#FFFFFF;gradientColor=none;shape=stencil(nZBLDoAgDERP0z3SIyjew0SURgSD+Lu9kMZoXLhwN9O+tukAlrNpJg1SzDH4QW/URgNYgZTkjA4UkwJUgGXng+6DX1zLfmoymdXo17xh5zmRJ6Q42BWCfc2oJfdAr+Yv+AP9Cb7OJ3H/2JG1HNGz/84klThPVCc=);points=[[0.5,1.67,0],[0.5,2.33,0],[0.5,3,0],[0.5,3.78,0],[0.5,4.33,0],[0.5,5.44,0],[0.5,6,0],[0.5,6.56,0],[0.5,7.33,0],[0.5,8.22,0],[0.5,8.78,0],[0.5,9.33,0],[0.5,10.22,0],[0.5,11,0],[0.5,11.29,0],[0.5,11.29,0],[0.5,11.29,0],[0.5,11.29,0],[0.5,11.29,0],[0.5,11.29,0],[0.5,11.29,0],[0.5,11.29,0],[0.5,11.29,0],[0.5,11.29,0],[0.5,11.29,0],[0.5,11.29,0],[0.5,11.29,0],[0.5,11.29,0],[0.5,11.29,0],[0.5,11.29,0],[0.5,11.29,0],[0.5,11.29,0],[0.5,11.29,0],[0.5,11.29,0],[0.5,11.29,0],[0.5,11.29,0],[0.5,11.29,0],[0.5,11.29,0],[0.5,11.29,0]];labelBackgroundColor=none;rounded=0;html=1;whiteSpace=wrap;" parent="12" vertex="1">
          <mxGeometry x="4" width="72" height="36" as="geometry" />
        </mxCell>
        <mxCell id="14" style="vsdxID=28;fillColor=#FFFFFF;gradientColor=none;shape=stencil(1VFBDsIgEHwNRxKE+IJa/7GxSyFiaRa07e+FLImtB+/eZnZmdgkjTJcczCi0SpniHRc/ZCfMRWjtJ4fkc0HC9MJ0NhKOFJ/TwHyG6qzoEV91w8q5s6oRrTamJ8X8yl6gW9GoeZuVtgP9vUitElafJMUM2cfpEA1AI8pyRNoAYwuylBbEeTf+h2cV8Plm60Pglvb6dy1lxJWa/g0=);points=[[0.5,1.67,0],[0.5,2.33,0],[0.5,3,0],[0.5,3.78,0],[0.5,4.33,0],[0.5,5.44,0],[0.5,6,0],[0.5,6.56,0],[0.5,7.33,0],[0.5,8.22,0],[0.5,8.78,0],[0.5,9.33,0],[0.5,10.22,0],[0.5,11,0],[0.5,11.29,0],[0.5,11.29,0],[0.5,11.29,0],[0.5,11.29,0],[0.5,11.29,0],[0.5,11.29,0],[0.5,11.29,0],[0.5,11.29,0],[0.5,11.29,0],[0.5,11.29,0],[0.5,11.29,0],[0.5,11.29,0],[0.5,11.29,0],[0.5,11.29,0],[0.5,11.29,0],[0.5,11.29,0],[0.5,11.29,0],[0.5,11.29,0],[0.5,11.29,0],[0.5,11.29,0],[0.5,11.29,0],[0.5,11.29,0],[0.5,11.29,0],[0.5,11.29,0],[0.5,11.29,0]];labelBackgroundColor=none;rounded=0;html=1;whiteSpace=wrap;" parent="12" vertex="1">
          <mxGeometry x="28" y="-5" width="24" height="1" as="geometry" />
        </mxCell>
        <mxCell id="15" value="" style="vsdxID=30;edgeStyle=none;dashed=1;startArrow=none;endArrow=none;startSize=5;endSize=5;spacingTop=0;spacingBottom=0;spacingLeft=0;spacingRight=0;verticalAlign=middle;html=1;labelBackgroundColor=#ffffff;rounded=0;" parent="12" edge="1">
          <mxGeometry relative="1" as="geometry">
            <Array as="points" />
            <mxPoint x="40" y="36" as="sourcePoint" />
            <mxPoint x="40" y="728" as="targetPoint" />
          </mxGeometry>
        </mxCell>
        <mxCell id="16" value="&lt;div style=&quot;font-size: 1px&quot;&gt;&lt;font style=&quot;font-size:16.93px;font-family:Calibri;color:#000000;direction:ltr;letter-spacing:0px;line-height:120%;opacity:1&quot;&gt;&lt;b&gt;HavaYolu&lt;br/&gt;&lt;/b&gt;&lt;/font&gt;&lt;/div&gt;" style="text;vsdxID=26;fillColor=none;gradientColor=none;points=[[0.5,11.56,0],[0.5,12.11,0],[0.5,13,0],[0.5,13.78,0],[0.5,14.44,0],[0.5,14.89,0],[0.5,15.78,0],[0.5,16.56,0],[0.5,17.22,0],[0.5,17.67,0],[0.5,18.67,0],[0.5,19.33,0],[0.5,20,0],[0.5,20.22,0],[0.5,20.22,0],[0.5,20.22,0],[0.5,20.22,0],[0.5,20.22,0],[0.5,20.22,0],[0.5,20.22,0],[0.5,20.22,0],[0.5,20.22,0],[0.5,20.22,0],[0.5,20.22,0],[0.5,20.22,0]];labelBackgroundColor=none;rounded=0;html=1;whiteSpace=wrap;verticalAlign=middle;align=center;overflow=width;strokeColor=none;;html=1;" parent="12" vertex="1">
          <mxGeometry width="80" height="36" as="geometry" />
        </mxCell>
        <UserObject label="" tags="Arkaplan" id="17">
          <mxCell style="vsdxID=33;fillColor=#FFFFFF;gradientColor=none;shape=stencil(nZBLDoAgDERP0z3SIyjew0SURgSD+Lu9kMZoXLhwN9O+tukAlrNpJg1SzDH4QW/URgNYgZTkjA4UkwJUgGXng+6DX1zLfmoymdXo17xh5zmRJ6Q42BWCfc2oJfdAr+Yv+AP9Cb7OJ3H/2JG1HNGz/84klThPVCc=);points=[[0.5,1.67,0],[0.5,2.33,0],[0.5,3,0],[0.5,3.78,0],[0.5,4.33,0],[0.5,5.44,0],[0.5,6,0],[0.5,6.56,0],[0.5,7.33,0],[0.5,8.22,0],[0.5,8.78,0],[0.5,9.33,0],[0.5,10.22,0],[0.5,11,0],[0.5,11.29,0],[0.5,11.29,0],[0.5,11.29,0],[0.5,11.29,0],[0.5,11.29,0],[0.5,11.29,0],[0.5,11.29,0],[0.5,11.29,0],[0.5,11.29,0],[0.5,11.29,0],[0.5,11.29,0],[0.5,11.29,0],[0.5,11.29,0],[0.5,11.29,0],[0.5,11.29,0],[0.5,11.29,0],[0.5,11.29,0],[0.5,11.29,0],[0.5,11.29,0],[0.5,11.29,0],[0.5,11.29,0],[0.5,11.29,0],[0.5,11.29,0],[0.5,11.29,0],[0.5,11.29,0]];labelBackgroundColor=none;rounded=0;html=1;whiteSpace=wrap;" parent="1" vertex="1">
            <mxGeometry x="1100" y="82" width="72" height="36" as="geometry" />
          </mxCell>
        </UserObject>
        <mxCell id="18" style="vsdxID=34;fillColor=#FFFFFF;gradientColor=none;shape=stencil(nZBLDoAgDERP0z3SIyjew0SURgSD+Lu9kMZoXLhwN9O+tukAlrNpJg1SzDH4QW/URgNYgZTkjA4UkwJUgGXng+6DX1zLfmoymdXo17xh5zmRJ6Q42BWCfc2oJfdAr+Yv+AP9Cb7OJ3H/2JG1HNGz/84klThPVCc=);points=[[0.5,1.67,0],[0.5,2.33,0],[0.5,3,0],[0.5,3.78,0],[0.5,4.33,0],[0.5,5.44,0],[0.5,6,0],[0.5,6.56,0],[0.5,7.33,0],[0.5,8.22,0],[0.5,8.78,0],[0.5,9.33,0],[0.5,10.22,0],[0.5,11,0],[0.5,11.29,0],[0.5,11.29,0],[0.5,11.29,0],[0.5,11.29,0],[0.5,11.29,0],[0.5,11.29,0],[0.5,11.29,0],[0.5,11.29,0],[0.5,11.29,0],[0.5,11.29,0],[0.5,11.29,0],[0.5,11.29,0],[0.5,11.29,0],[0.5,11.29,0],[0.5,11.29,0],[0.5,11.29,0],[0.5,11.29,0],[0.5,11.29,0],[0.5,11.29,0],[0.5,11.29,0],[0.5,11.29,0],[0.5,11.29,0],[0.5,11.29,0],[0.5,11.29,0],[0.5,11.29,0]];labelBackgroundColor=none;rounded=0;html=1;whiteSpace=wrap;" parent="17" vertex="1">
          <mxGeometry width="72" height="36" as="geometry" />
        </mxCell>
        <mxCell id="19" style="vsdxID=35;fillColor=#FFFFFF;gradientColor=none;shape=stencil(1VFBDsIgEHwNRxKE+IJa/7GxSyFiaRa07e+FLImtB+/eZnZmdgkjTJcczCi0SpniHRc/ZCfMRWjtJ4fkc0HC9MJ0NhKOFJ/TwHyG6qzoEV91w8q5s6oRrTamJ8X8yl6gW9GoeZuVtgP9vUitElafJMUM2cfpEA1AI8pyRNoAYwuylBbEeTf+h2cV8Plm60Pglvb6dy1lxJWa/g0=);points=[[0.5,1.67,0],[0.5,2.33,0],[0.5,3,0],[0.5,3.78,0],[0.5,4.33,0],[0.5,5.44,0],[0.5,6,0],[0.5,6.56,0],[0.5,7.33,0],[0.5,8.22,0],[0.5,8.78,0],[0.5,9.33,0],[0.5,10.22,0],[0.5,11,0],[0.5,11.29,0],[0.5,11.29,0],[0.5,11.29,0],[0.5,11.29,0],[0.5,11.29,0],[0.5,11.29,0],[0.5,11.29,0],[0.5,11.29,0],[0.5,11.29,0],[0.5,11.29,0],[0.5,11.29,0],[0.5,11.29,0],[0.5,11.29,0],[0.5,11.29,0],[0.5,11.29,0],[0.5,11.29,0],[0.5,11.29,0],[0.5,11.29,0],[0.5,11.29,0],[0.5,11.29,0],[0.5,11.29,0],[0.5,11.29,0],[0.5,11.29,0],[0.5,11.29,0],[0.5,11.29,0]];labelBackgroundColor=none;rounded=0;html=1;whiteSpace=wrap;" parent="17" vertex="1">
          <mxGeometry x="24" y="-5" width="24" height="1" as="geometry" />
        </mxCell>
        <mxCell id="20" value="" style="vsdxID=37;edgeStyle=none;dashed=1;startArrow=none;endArrow=none;startSize=5;endSize=5;spacingTop=0;spacingBottom=0;spacingLeft=0;spacingRight=0;verticalAlign=middle;html=1;labelBackgroundColor=#ffffff;rounded=0;" parent="17" edge="1">
          <mxGeometry relative="1" as="geometry">
            <Array as="points" />
            <mxPoint x="36" y="36" as="sourcePoint" />
            <mxPoint x="36" y="734" as="targetPoint" />
          </mxGeometry>
        </mxCell>
        <mxCell id="21" value="&lt;div style=&quot;font-size: 1px&quot;&gt;&lt;font style=&quot;font-size:16.93px;font-family:Calibri;color:#000000;direction:ltr;letter-spacing:0px;line-height:120%;opacity:1&quot;&gt;&lt;b&gt;Uçuşlar&lt;br/&gt;&lt;/b&gt;&lt;/font&gt;&lt;/div&gt;" style="text;vsdxID=33;fillColor=none;gradientColor=none;points=[[0.5,1.67,0],[0.5,2.33,0],[0.5,3,0],[0.5,3.78,0],[0.5,4.33,0],[0.5,5.44,0],[0.5,6,0],[0.5,6.56,0],[0.5,7.33,0],[0.5,8.22,0],[0.5,8.78,0],[0.5,9.33,0],[0.5,10.22,0],[0.5,11,0],[0.5,11.29,0],[0.5,11.29,0],[0.5,11.29,0],[0.5,11.29,0],[0.5,11.29,0],[0.5,11.29,0],[0.5,11.29,0],[0.5,11.29,0],[0.5,11.29,0],[0.5,11.29,0],[0.5,11.29,0],[0.5,11.29,0],[0.5,11.29,0],[0.5,11.29,0],[0.5,11.29,0],[0.5,11.29,0],[0.5,11.29,0],[0.5,11.29,0],[0.5,11.29,0],[0.5,11.29,0],[0.5,11.29,0],[0.5,11.29,0],[0.5,11.29,0],[0.5,11.29,0],[0.5,11.29,0]];labelBackgroundColor=none;rounded=0;html=1;whiteSpace=wrap;verticalAlign=middle;align=center;overflow=width;strokeColor=none;;html=1;" parent="17" vertex="1">
          <mxGeometry width="72" height="36" as="geometry" />
        </mxCell>
        <UserObject label="" tags="Arkaplan" id="22">
          <mxCell style="vsdxID=39;fillColor=#FFFFFF;gradientColor=none;shape=stencil(nZBLDoAgDERP0z3SIyjew0SURgSD+Lu9kMZoXLhwN9O+tukAlrNpJg1SzDH4QW/URgNYgZTkjA4UkwJUgGXng+6DX1zLfmoymdXo17xh5zmRJ6Q42BWCfc2oJfdAr+Yv+AP9Cb7OJ3H/2JG1HNGz/84klThPVCc=);points=[[0.5,1.67,0],[0.5,2.33,0],[0.5,3,0],[0.5,3.78,0],[0.5,4.33,0],[0.5,5.44,0],[0.5,6,0],[0.5,6.56,0],[0.5,7.33,0],[0.5,8.22,0],[0.5,8.78,0],[0.5,9.33,0],[0.5,10.22,0],[0.5,11,0],[0.5,11.29,0],[0.5,11.29,0],[0.5,11.29,0],[0.5,11.29,0],[0.5,11.29,0],[0.5,11.29,0],[0.5,11.29,0],[0.5,11.29,0],[0.5,11.29,0],[0.5,11.29,0],[0.5,11.29,0],[0.5,11.29,0],[0.5,11.29,0],[0.5,11.29,0],[0.5,11.29,0],[0.5,11.29,0],[0.5,11.29,0],[0.5,11.29,0],[0.5,11.29,0],[0.5,11.29,0],[0.5,11.29,0],[0.5,11.29,0],[0.5,11.29,0],[0.5,11.29,0],[0.5,11.29,0]];labelBackgroundColor=none;rounded=0;html=1;whiteSpace=wrap;" parent="1" vertex="1">
            <mxGeometry x="1308" y="82" width="72" height="36" as="geometry" />
          </mxCell>
        </UserObject>
        <mxCell id="23" style="vsdxID=40;fillColor=#FFFFFF;gradientColor=none;shape=stencil(nZBLDoAgDERP0z3SIyjew0SURgSD+Lu9kMZoXLhwN9O+tukAlrNpJg1SzDH4QW/URgNYgZTkjA4UkwJUgGXng+6DX1zLfmoymdXo17xh5zmRJ6Q42BWCfc2oJfdAr+Yv+AP9Cb7OJ3H/2JG1HNGz/84klThPVCc=);points=[[0.5,1.67,0],[0.5,2.33,0],[0.5,3,0],[0.5,3.78,0],[0.5,4.33,0],[0.5,5.44,0],[0.5,6,0],[0.5,6.56,0],[0.5,7.33,0],[0.5,8.22,0],[0.5,8.78,0],[0.5,9.33,0],[0.5,10.22,0],[0.5,11,0],[0.5,11.29,0],[0.5,11.29,0],[0.5,11.29,0],[0.5,11.29,0],[0.5,11.29,0],[0.5,11.29,0],[0.5,11.29,0],[0.5,11.29,0],[0.5,11.29,0],[0.5,11.29,0],[0.5,11.29,0],[0.5,11.29,0],[0.5,11.29,0],[0.5,11.29,0],[0.5,11.29,0],[0.5,11.29,0],[0.5,11.29,0],[0.5,11.29,0],[0.5,11.29,0],[0.5,11.29,0],[0.5,11.29,0],[0.5,11.29,0],[0.5,11.29,0],[0.5,11.29,0],[0.5,11.29,0]];labelBackgroundColor=none;rounded=0;html=1;whiteSpace=wrap;" parent="22" vertex="1">
          <mxGeometry width="72" height="36" as="geometry" />
        </mxCell>
        <mxCell id="24" style="vsdxID=41;fillColor=#FFFFFF;gradientColor=none;shape=stencil(1VFBDsIgEHwNRxKE+IJa/7GxSyFiaRa07e+FLImtB+/eZnZmdgkjTJcczCi0SpniHRc/ZCfMRWjtJ4fkc0HC9MJ0NhKOFJ/TwHyG6qzoEV91w8q5s6oRrTamJ8X8yl6gW9GoeZuVtgP9vUitElafJMUM2cfpEA1AI8pyRNoAYwuylBbEeTf+h2cV8Plm60Pglvb6dy1lxJWa/g0=);points=[[0.5,1.67,0],[0.5,2.33,0],[0.5,3,0],[0.5,3.78,0],[0.5,4.33,0],[0.5,5.44,0],[0.5,6,0],[0.5,6.56,0],[0.5,7.33,0],[0.5,8.22,0],[0.5,8.78,0],[0.5,9.33,0],[0.5,10.22,0],[0.5,11,0],[0.5,11.29,0],[0.5,11.29,0],[0.5,11.29,0],[0.5,11.29,0],[0.5,11.29,0],[0.5,11.29,0],[0.5,11.29,0],[0.5,11.29,0],[0.5,11.29,0],[0.5,11.29,0],[0.5,11.29,0],[0.5,11.29,0],[0.5,11.29,0],[0.5,11.29,0],[0.5,11.29,0],[0.5,11.29,0],[0.5,11.29,0],[0.5,11.29,0],[0.5,11.29,0],[0.5,11.29,0],[0.5,11.29,0],[0.5,11.29,0],[0.5,11.29,0],[0.5,11.29,0],[0.5,11.29,0]];labelBackgroundColor=none;rounded=0;html=1;whiteSpace=wrap;" parent="22" vertex="1">
          <mxGeometry x="24" y="-5" width="24" height="1" as="geometry" />
        </mxCell>
        <mxCell id="25" value="" style="vsdxID=43;edgeStyle=none;dashed=1;startArrow=none;endArrow=none;startSize=5;endSize=5;spacingTop=0;spacingBottom=0;spacingLeft=0;spacingRight=0;verticalAlign=middle;html=1;labelBackgroundColor=#ffffff;rounded=0;" parent="22" edge="1">
          <mxGeometry relative="1" as="geometry">
            <Array as="points" />
            <mxPoint x="36" y="36" as="sourcePoint" />
            <mxPoint x="36" y="724" as="targetPoint" />
          </mxGeometry>
        </mxCell>
        <mxCell id="26" value="&lt;div style=&quot;font-size: 1px&quot;&gt;&lt;font style=&quot;font-size:16.93px;font-family:Calibri;color:#000000;direction:ltr;letter-spacing:0px;line-height:120%;opacity:1&quot;&gt;&lt;b&gt;Uçak&lt;br/&gt;&lt;/b&gt;&lt;/font&gt;&lt;/div&gt;" style="text;vsdxID=39;fillColor=none;gradientColor=none;points=[[0.5,1.67,0],[0.5,2.33,0],[0.5,3,0],[0.5,3.78,0],[0.5,4.33,0],[0.5,5.44,0],[0.5,6,0],[0.5,6.56,0],[0.5,7.33,0],[0.5,8.22,0],[0.5,8.78,0],[0.5,9.33,0],[0.5,10.22,0],[0.5,11,0],[0.5,11.29,0],[0.5,11.29,0],[0.5,11.29,0],[0.5,11.29,0],[0.5,11.29,0],[0.5,11.29,0],[0.5,11.29,0],[0.5,11.29,0],[0.5,11.29,0],[0.5,11.29,0],[0.5,11.29,0],[0.5,11.29,0],[0.5,11.29,0],[0.5,11.29,0],[0.5,11.29,0],[0.5,11.29,0],[0.5,11.29,0],[0.5,11.29,0],[0.5,11.29,0],[0.5,11.29,0],[0.5,11.29,0],[0.5,11.29,0],[0.5,11.29,0],[0.5,11.29,0],[0.5,11.29,0]];labelBackgroundColor=none;rounded=0;html=1;whiteSpace=wrap;verticalAlign=middle;align=center;overflow=width;strokeColor=none;;html=1;" parent="22" vertex="1">
          <mxGeometry width="72" height="36" as="geometry" />
        </mxCell>
        <UserObject label="" tags="Arkaplan" id="27">
          <mxCell style="vsdxID=47;rotation=270;fillColor=#FFFFFF;gradientColor=none;shape=stencil(nZBLDoAgDERP0z3SIyjew0SURgSD+Lu9kMZoXLhwN9O+tukAlrNpJg1SzDH4QW/URgNYgZTkjA4UkwJUgGXng+6DX1zLfmoymdXo17xh5zmRJ6Q42BWCfc2oJfdAr+Yv+AP9Cb7OJ3H/2JG1HNGz/84klThPVCc=);points=[[1,1,0],[1,0,0],[0.77,1,0],[0.77,0,0],[0.54,1,0],[0.54,0,0],[0.31,1,0],[0.31,0,0],[0.04,1,0],[0.04,0,0],[1,1,0],[1,0,0],[1,1,0],[1,0,0],[1,1,0],[1,0,0],[1,1,0],[1,0,0],[1,1,0],[1,0,0],[1,1,0],[1,0,0],[1,1,0],[1,0,0],[1,1,0],[1,0,0],[1,1,0],[1,0,0],[1,1,0],[1,0,0],[1,1,0],[1,0,0],[1,1,0],[1,0,0],[1,1,0],[1,0,0],[1,1,0],[1,0,0],[1,1,0],[1,0,0]];labelBackgroundColor=none;rounded=0;html=1;whiteSpace=wrap;" parent="1" vertex="1">
            <mxGeometry x="-46" y="254" width="236" height="12" as="geometry" />
          </mxCell>
        </UserObject>
        <UserObject label="" tags="Arkaplan" id="28">
          <mxCell style="vsdxID=51;rotation=270;fillColor=#FFFFFF;gradientColor=none;shape=stencil(nZBLDoAgDERP0z3SIyjew0SURgSD+Lu9kMZoXLhwN9O+tukAlrNpJg1SzDH4QW/URgNYgZTkjA4UkwJUgGXng+6DX1zLfmoymdXo17xh5zmRJ6Q42BWCfc2oJfdAr+Yv+AP9Cb7OJ3H/2JG1HNGz/84klThPVCc=);points=[[1,1,0],[1,0,0],[0.77,1,0],[0.77,0,0],[0.54,1,0],[0.54,0,0],[0.31,1,0],[0.31,0,0],[0.04,1,0],[0.04,0,0],[1,1,0],[1,0,0],[1,1,0],[1,0,0],[1,1,0],[1,0,0],[1,1,0],[1,0,0],[1,1,0],[1,0,0],[1,1,0],[1,0,0],[1,1,0],[1,0,0],[1,1,0],[1,0,0],[1,1,0],[1,0,0],[1,1,0],[1,0,0],[1,1,0],[1,0,0],[1,1,0],[1,0,0],[1,1,0],[1,0,0],[1,1,0],[1,0,0],[1,1,0],[1,0,0]];labelBackgroundColor=none;rounded=0;html=1;whiteSpace=wrap;" parent="1" vertex="1">
            <mxGeometry x="592" y="274" width="276" height="12" as="geometry" />
          </mxCell>
        </UserObject>
        <UserObject label="" tags="Arkaplan" id="29">
          <mxCell style="vsdxID=52;fillColor=#FFFFFF;gradientColor=none;shape=stencil(nZBLDoAgDERP0z3SIyjew0SURgSD+Lu9kMZoXLhwN9O+tukAlrNpJg1SzDH4QW/URgNYgZTkjA4UkwJUgGXng+6DX1zLfmoymdXo17xh5zmRJ6Q42BWCfc2oJfdAr+Yv+AP9Cb7OJ3H/2JG1HNGz/84klThPVCc=);points=[[0.5,1.67,0],[0.5,2.33,0],[0.5,3,0],[0.5,3.78,0],[0.5,4.33,0],[0.5,5.44,0],[0.5,6,0],[0.5,6.56,0],[0.5,7.33,0],[0.5,8.22,0],[0.5,8.78,0],[0.5,9.33,0],[0.5,10.22,0],[0.5,11,0],[0.5,11.29,0],[0.5,11.29,0],[0.5,11.29,0],[0.5,11.29,0],[0.5,11.29,0],[0.5,11.29,0],[0.5,11.29,0],[0.5,11.29,0],[0.5,11.29,0],[0.5,11.29,0],[0.5,11.29,0],[0.5,11.29,0],[0.5,11.29,0],[0.5,11.29,0],[0.5,11.29,0],[0.5,11.29,0],[0.5,11.29,0],[0.5,11.29,0],[0.5,11.29,0],[0.5,11.29,0],[0.5,11.29,0],[0.5,11.29,0],[0.5,11.29,0],[0.5,11.29,0],[0.5,11.29,0]];labelBackgroundColor=none;rounded=0;html=1;whiteSpace=wrap;" parent="1" vertex="1">
            <mxGeometry x="208" y="82" width="72" height="36" as="geometry" />
          </mxCell>
        </UserObject>
        <mxCell id="30" style="vsdxID=53;fillColor=#FFFFFF;gradientColor=none;shape=stencil(nZBLDoAgDERP0z3SIyjew0SURgSD+Lu9kMZoXLhwN9O+tukAlrNpJg1SzDH4QW/URgNYgZTkjA4UkwJUgGXng+6DX1zLfmoymdXo17xh5zmRJ6Q42BWCfc2oJfdAr+Yv+AP9Cb7OJ3H/2JG1HNGz/84klThPVCc=);points=[[0.5,1.67,0],[0.5,2.33,0],[0.5,3,0],[0.5,3.78,0],[0.5,4.33,0],[0.5,5.44,0],[0.5,6,0],[0.5,6.56,0],[0.5,7.33,0],[0.5,8.22,0],[0.5,8.78,0],[0.5,9.33,0],[0.5,10.22,0],[0.5,11,0],[0.5,11.29,0],[0.5,11.29,0],[0.5,11.29,0],[0.5,11.29,0],[0.5,11.29,0],[0.5,11.29,0],[0.5,11.29,0],[0.5,11.29,0],[0.5,11.29,0],[0.5,11.29,0],[0.5,11.29,0],[0.5,11.29,0],[0.5,11.29,0],[0.5,11.29,0],[0.5,11.29,0],[0.5,11.29,0],[0.5,11.29,0],[0.5,11.29,0],[0.5,11.29,0],[0.5,11.29,0],[0.5,11.29,0],[0.5,11.29,0],[0.5,11.29,0],[0.5,11.29,0],[0.5,11.29,0]];labelBackgroundColor=none;rounded=0;html=1;whiteSpace=wrap;" parent="29" vertex="1">
          <mxGeometry width="72" height="36" as="geometry" />
        </mxCell>
        <mxCell id="31" style="vsdxID=54;fillColor=#FFFFFF;gradientColor=none;shape=stencil(1VFBDsIgEHwNRxKE+IJa/7GxSyFiaRa07e+FLImtB+/eZnZmdgkjTJcczCi0SpniHRc/ZCfMRWjtJ4fkc0HC9MJ0NhKOFJ/TwHyG6qzoEV91w8q5s6oRrTamJ8X8yl6gW9GoeZuVtgP9vUitElafJMUM2cfpEA1AI8pyRNoAYwuylBbEeTf+h2cV8Plm60Pglvb6dy1lxJWa/g0=);points=[[0.5,1.67,0],[0.5,2.33,0],[0.5,3,0],[0.5,3.78,0],[0.5,4.33,0],[0.5,5.44,0],[0.5,6,0],[0.5,6.56,0],[0.5,7.33,0],[0.5,8.22,0],[0.5,8.78,0],[0.5,9.33,0],[0.5,10.22,0],[0.5,11,0],[0.5,11.29,0],[0.5,11.29,0],[0.5,11.29,0],[0.5,11.29,0],[0.5,11.29,0],[0.5,11.29,0],[0.5,11.29,0],[0.5,11.29,0],[0.5,11.29,0],[0.5,11.29,0],[0.5,11.29,0],[0.5,11.29,0],[0.5,11.29,0],[0.5,11.29,0],[0.5,11.29,0],[0.5,11.29,0],[0.5,11.29,0],[0.5,11.29,0],[0.5,11.29,0],[0.5,11.29,0],[0.5,11.29,0],[0.5,11.29,0],[0.5,11.29,0],[0.5,11.29,0],[0.5,11.29,0]];labelBackgroundColor=none;rounded=0;html=1;whiteSpace=wrap;" parent="29" vertex="1">
          <mxGeometry x="24" y="-5" width="24" height="1" as="geometry" />
        </mxCell>
        <mxCell id="32" value="" style="vsdxID=56;edgeStyle=none;dashed=1;startArrow=none;endArrow=none;startSize=5;endSize=5;spacingTop=0;spacingBottom=0;spacingLeft=0;spacingRight=0;verticalAlign=middle;html=1;labelBackgroundColor=#ffffff;rounded=0;" parent="29" edge="1">
          <mxGeometry relative="1" as="geometry">
            <Array as="points" />
            <mxPoint x="36" y="36" as="sourcePoint" />
            <mxPoint x="36" y="726" as="targetPoint" />
          </mxGeometry>
        </mxCell>
        <mxCell id="33" value="&lt;div style=&quot;font-size: 1px&quot;&gt;&lt;font style=&quot;font-size:16.93px;font-family:Calibri;color:#000000;direction:ltr;letter-spacing:0px;line-height:120%;opacity:1&quot;&gt;&lt;b&gt;Giri&lt;/b&gt;&lt;/font&gt;&lt;font style=&quot;font-size:16.93px;font-family:Themed;color:#000000;direction:ltr;letter-spacing:0px;line-height:120%;opacity:1&quot;&gt;&lt;b&gt;ş&lt;br/&gt;&lt;/b&gt;&lt;/font&gt;&lt;/div&gt;" style="text;vsdxID=52;fillColor=none;gradientColor=none;points=[[0.5,1.67,0],[0.5,2.33,0],[0.5,3,0],[0.5,3.78,0],[0.5,4.33,0],[0.5,5.44,0],[0.5,6,0],[0.5,6.56,0],[0.5,7.33,0],[0.5,8.22,0],[0.5,8.78,0],[0.5,9.33,0],[0.5,10.22,0],[0.5,11,0],[0.5,11.29,0],[0.5,11.29,0],[0.5,11.29,0],[0.5,11.29,0],[0.5,11.29,0],[0.5,11.29,0],[0.5,11.29,0],[0.5,11.29,0],[0.5,11.29,0],[0.5,11.29,0],[0.5,11.29,0],[0.5,11.29,0],[0.5,11.29,0],[0.5,11.29,0],[0.5,11.29,0],[0.5,11.29,0],[0.5,11.29,0],[0.5,11.29,0],[0.5,11.29,0],[0.5,11.29,0],[0.5,11.29,0],[0.5,11.29,0],[0.5,11.29,0],[0.5,11.29,0],[0.5,11.29,0]];labelBackgroundColor=none;rounded=0;html=1;whiteSpace=wrap;verticalAlign=middle;align=center;overflow=width;strokeColor=none;;html=1;" parent="29" vertex="1">
          <mxGeometry width="72" height="36" as="geometry" />
        </mxCell>
        <UserObject label="" tags="Arkaplan" id="34">
          <mxCell style="vsdxID=58;fillColor=#FFFFFF;gradientColor=none;shape=stencil(nZBLDoAgDERP0z3SIyjew0SURgSD+Lu9kMZoXLhwN9O+tukAlrNpJg1SzDH4QW/URgNYgZTkjA4UkwJUgGXng+6DX1zLfmoymdXo17xh5zmRJ6Q42BWCfc2oJfdAr+Yv+AP9Cb7OJ3H/2JG1HNGz/84klThPVCc=);points=[[0.5,1.67,0],[0.5,2.33,0],[0.5,3,0],[0.5,3.78,0],[0.5,4.33,0],[0.5,5.44,0],[0.5,6,0],[0.5,6.56,0],[0.5,7.33,0],[0.5,8.22,0],[0.5,8.78,0],[0.5,9.33,0],[0.5,10.22,0],[0.5,11,0],[0.5,11.29,0],[0.5,11.29,0],[0.5,11.29,0],[0.5,11.29,0],[0.5,11.29,0],[0.5,11.29,0],[0.5,11.29,0],[0.5,11.29,0],[0.5,11.29,0],[0.5,11.29,0],[0.5,11.29,0],[0.5,11.29,0],[0.5,11.29,0],[0.5,11.29,0],[0.5,11.29,0],[0.5,11.29,0],[0.5,11.29,0],[0.5,11.29,0],[0.5,11.29,0],[0.5,11.29,0],[0.5,11.29,0],[0.5,11.29,0],[0.5,11.29,0],[0.5,11.29,0],[0.5,11.29,0]];labelBackgroundColor=none;rounded=0;html=1;whiteSpace=wrap;" parent="1" vertex="1">
            <mxGeometry x="340" y="82" width="72" height="36" as="geometry" />
          </mxCell>
        </UserObject>
        <mxCell id="35" style="vsdxID=59;fillColor=#FFFFFF;gradientColor=none;shape=stencil(nZBLDoAgDERP0z3SIyjew0SURgSD+Lu9kMZoXLhwN9O+tukAlrNpJg1SzDH4QW/URgNYgZTkjA4UkwJUgGXng+6DX1zLfmoymdXo17xh5zmRJ6Q42BWCfc2oJfdAr+Yv+AP9Cb7OJ3H/2JG1HNGz/84klThPVCc=);points=[[0.5,1.67,0],[0.5,2.33,0],[0.5,3,0],[0.5,3.78,0],[0.5,4.33,0],[0.5,5.44,0],[0.5,6,0],[0.5,6.56,0],[0.5,7.33,0],[0.5,8.22,0],[0.5,8.78,0],[0.5,9.33,0],[0.5,10.22,0],[0.5,11,0],[0.5,11.29,0],[0.5,11.29,0],[0.5,11.29,0],[0.5,11.29,0],[0.5,11.29,0],[0.5,11.29,0],[0.5,11.29,0],[0.5,11.29,0],[0.5,11.29,0],[0.5,11.29,0],[0.5,11.29,0],[0.5,11.29,0],[0.5,11.29,0],[0.5,11.29,0],[0.5,11.29,0],[0.5,11.29,0],[0.5,11.29,0],[0.5,11.29,0],[0.5,11.29,0],[0.5,11.29,0],[0.5,11.29,0],[0.5,11.29,0],[0.5,11.29,0],[0.5,11.29,0],[0.5,11.29,0]];labelBackgroundColor=none;rounded=0;html=1;whiteSpace=wrap;" parent="34" vertex="1">
          <mxGeometry width="72" height="36" as="geometry" />
        </mxCell>
        <mxCell id="36" style="vsdxID=60;fillColor=#FFFFFF;gradientColor=none;shape=stencil(1VFBDsIgEHwNRxKE+IJa/7GxSyFiaRa07e+FLImtB+/eZnZmdgkjTJcczCi0SpniHRc/ZCfMRWjtJ4fkc0HC9MJ0NhKOFJ/TwHyG6qzoEV91w8q5s6oRrTamJ8X8yl6gW9GoeZuVtgP9vUitElafJMUM2cfpEA1AI8pyRNoAYwuylBbEeTf+h2cV8Plm60Pglvb6dy1lxJWa/g0=);points=[[0.5,1.67,0],[0.5,2.33,0],[0.5,3,0],[0.5,3.78,0],[0.5,4.33,0],[0.5,5.44,0],[0.5,6,0],[0.5,6.56,0],[0.5,7.33,0],[0.5,8.22,0],[0.5,8.78,0],[0.5,9.33,0],[0.5,10.22,0],[0.5,11,0],[0.5,11.29,0],[0.5,11.29,0],[0.5,11.29,0],[0.5,11.29,0],[0.5,11.29,0],[0.5,11.29,0],[0.5,11.29,0],[0.5,11.29,0],[0.5,11.29,0],[0.5,11.29,0],[0.5,11.29,0],[0.5,11.29,0],[0.5,11.29,0],[0.5,11.29,0],[0.5,11.29,0],[0.5,11.29,0],[0.5,11.29,0],[0.5,11.29,0],[0.5,11.29,0],[0.5,11.29,0],[0.5,11.29,0],[0.5,11.29,0],[0.5,11.29,0],[0.5,11.29,0],[0.5,11.29,0]];labelBackgroundColor=none;rounded=0;html=1;whiteSpace=wrap;" parent="34" vertex="1">
          <mxGeometry x="24" y="-5" width="24" height="1" as="geometry" />
        </mxCell>
        <mxCell id="37" value="" style="vsdxID=62;edgeStyle=none;dashed=1;startArrow=none;endArrow=none;startSize=5;endSize=5;spacingTop=0;spacingBottom=0;spacingLeft=0;spacingRight=0;verticalAlign=middle;html=1;labelBackgroundColor=#ffffff;rounded=0;" parent="34" edge="1">
          <mxGeometry relative="1" as="geometry">
            <Array as="points" />
            <mxPoint x="36" y="36" as="sourcePoint" />
            <mxPoint x="36" y="718" as="targetPoint" />
          </mxGeometry>
        </mxCell>
        <mxCell id="38" value="&lt;div style=&quot;font-size: 1px&quot;&gt;&lt;font style=&quot;font-size:16.93px;font-family:Calibri;color:#000000;direction:ltr;letter-spacing:0px;line-height:120%;opacity:1&quot;&gt;&lt;b&gt;Yönetici&lt;br/&gt;&lt;/b&gt;&lt;/font&gt;&lt;/div&gt;" style="text;vsdxID=58;fillColor=none;gradientColor=none;points=[[0.5,1.67,0],[0.5,2.33,0],[0.5,3,0],[0.5,3.78,0],[0.5,4.33,0],[0.5,5.44,0],[0.5,6,0],[0.5,6.56,0],[0.5,7.33,0],[0.5,8.22,0],[0.5,8.78,0],[0.5,9.33,0],[0.5,10.22,0],[0.5,11,0],[0.5,11.29,0],[0.5,11.29,0],[0.5,11.29,0],[0.5,11.29,0],[0.5,11.29,0],[0.5,11.29,0],[0.5,11.29,0],[0.5,11.29,0],[0.5,11.29,0],[0.5,11.29,0],[0.5,11.29,0],[0.5,11.29,0],[0.5,11.29,0],[0.5,11.29,0],[0.5,11.29,0],[0.5,11.29,0],[0.5,11.29,0],[0.5,11.29,0],[0.5,11.29,0],[0.5,11.29,0],[0.5,11.29,0],[0.5,11.29,0],[0.5,11.29,0],[0.5,11.29,0],[0.5,11.29,0]];labelBackgroundColor=none;rounded=0;html=1;whiteSpace=wrap;verticalAlign=middle;align=center;overflow=width;strokeColor=none;;html=1;" parent="34" vertex="1">
          <mxGeometry width="72" height="36" as="geometry" />
        </mxCell>
        <UserObject label="" tags="Arkaplan" id="39">
          <mxCell style="vsdxID=64;fillColor=#FFFFFF;gradientColor=none;shape=stencil(nZBLDoAgDERP0z3SIyjew0SURgSD+Lu9kMZoXLhwN9O+tukAlrNpJg1SzDH4QW/URgNYgZTkjA4UkwJUgGXng+6DX1zLfmoymdXo17xh5zmRJ6Q42BWCfc2oJfdAr+Yv+AP9Cb7OJ3H/2JG1HNGz/84klThPVCc=);points=[[0.5,11.56,0],[0.5,12.11,0],[0.5,13,0],[0.5,13.78,0],[0.5,14.44,0],[0.5,14.89,0],[0.5,15.78,0],[0.5,16.56,0],[0.5,17.22,0],[0.5,17.67,0],[0.5,18.67,0],[0.5,19.33,0],[0.5,20,0],[0.5,20.11,0],[0.5,20.11,0],[0.5,20.11,0],[0.5,20.11,0],[0.5,20.11,0],[0.5,20.11,0],[0.5,20.11,0],[0.5,20.11,0],[0.5,20.11,0],[0.5,20.11,0],[0.5,20.11,0],[0.5,20.11,0]];labelBackgroundColor=none;rounded=0;html=1;whiteSpace=wrap;" parent="1" vertex="1">
            <mxGeometry x="472" y="82" width="116" height="36" as="geometry" />
          </mxCell>
        </UserObject>
        <mxCell id="40" style="vsdxID=65;fillColor=#FFFFFF;gradientColor=none;shape=stencil(nZBLDoAgDERP0z3SIyjew0SURgSD+Lu9kMZoXLhwN9O+tukAlrNpJg1SzDH4QW/URgNYgZTkjA4UkwJUgGXng+6DX1zLfmoymdXo17xh5zmRJ6Q42BWCfc2oJfdAr+Yv+AP9Cb7OJ3H/2JG1HNGz/84klThPVCc=);points=[[0.5,1.67,0],[0.5,2.33,0],[0.5,3,0],[0.5,3.78,0],[0.5,4.33,0],[0.5,5.44,0],[0.5,6,0],[0.5,6.56,0],[0.5,7.33,0],[0.5,8.22,0],[0.5,8.78,0],[0.5,9.33,0],[0.5,10.22,0],[0.5,11,0],[0.5,11.29,0],[0.5,11.29,0],[0.5,11.29,0],[0.5,11.29,0],[0.5,11.29,0],[0.5,11.29,0],[0.5,11.29,0],[0.5,11.29,0],[0.5,11.29,0],[0.5,11.29,0],[0.5,11.29,0],[0.5,11.29,0],[0.5,11.29,0],[0.5,11.29,0],[0.5,11.29,0],[0.5,11.29,0],[0.5,11.29,0],[0.5,11.29,0],[0.5,11.29,0],[0.5,11.29,0],[0.5,11.29,0],[0.5,11.29,0],[0.5,11.29,0],[0.5,11.29,0],[0.5,11.29,0]];labelBackgroundColor=none;rounded=0;html=1;whiteSpace=wrap;" parent="39" vertex="1">
          <mxGeometry x="22" width="72" height="36" as="geometry" />
        </mxCell>
        <mxCell id="41" style="vsdxID=66;fillColor=#FFFFFF;gradientColor=none;shape=stencil(1VFBDsIgEHwNRxKE+IJa/7GxSyFiaRa07e+FLImtB+/eZnZmdgkjTJcczCi0SpniHRc/ZCfMRWjtJ4fkc0HC9MJ0NhKOFJ/TwHyG6qzoEV91w8q5s6oRrTamJ8X8yl6gW9GoeZuVtgP9vUitElafJMUM2cfpEA1AI8pyRNoAYwuylBbEeTf+h2cV8Plm60Pglvb6dy1lxJWa/g0=);points=[[0.5,1.67,0],[0.5,2.33,0],[0.5,3,0],[0.5,3.78,0],[0.5,4.33,0],[0.5,5.44,0],[0.5,6,0],[0.5,6.56,0],[0.5,7.33,0],[0.5,8.22,0],[0.5,8.78,0],[0.5,9.33,0],[0.5,10.22,0],[0.5,11,0],[0.5,11.29,0],[0.5,11.29,0],[0.5,11.29,0],[0.5,11.29,0],[0.5,11.29,0],[0.5,11.29,0],[0.5,11.29,0],[0.5,11.29,0],[0.5,11.29,0],[0.5,11.29,0],[0.5,11.29,0],[0.5,11.29,0],[0.5,11.29,0],[0.5,11.29,0],[0.5,11.29,0],[0.5,11.29,0],[0.5,11.29,0],[0.5,11.29,0],[0.5,11.29,0],[0.5,11.29,0],[0.5,11.29,0],[0.5,11.29,0],[0.5,11.29,0],[0.5,11.29,0],[0.5,11.29,0]];labelBackgroundColor=none;rounded=0;html=1;whiteSpace=wrap;" parent="39" vertex="1">
          <mxGeometry x="46" y="-5" width="24" height="1" as="geometry" />
        </mxCell>
        <mxCell id="42" value="" style="vsdxID=68;edgeStyle=none;dashed=1;startArrow=none;endArrow=none;startSize=5;endSize=5;spacingTop=0;spacingBottom=0;spacingLeft=0;spacingRight=0;verticalAlign=middle;html=1;labelBackgroundColor=#ffffff;rounded=0;" parent="39" edge="1">
          <mxGeometry relative="1" as="geometry">
            <Array as="points" />
            <mxPoint x="58" y="36" as="sourcePoint" />
            <mxPoint x="58" y="724" as="targetPoint" />
          </mxGeometry>
        </mxCell>
        <mxCell id="43" value="&lt;div style=&quot;font-size: 1px&quot;&gt;&lt;font style=&quot;font-size:16.93px;font-family:Calibri;color:#000000;direction:ltr;letter-spacing:0px;line-height:120%;opacity:1&quot;&gt;&lt;b&gt;Görevi Sorgula&lt;br/&gt;&lt;/b&gt;&lt;/font&gt;&lt;/div&gt;" style="text;vsdxID=64;fillColor=none;gradientColor=none;points=[[0.5,11.56,0],[0.5,12.11,0],[0.5,13,0],[0.5,13.78,0],[0.5,14.44,0],[0.5,14.89,0],[0.5,15.78,0],[0.5,16.56,0],[0.5,17.22,0],[0.5,17.67,0],[0.5,18.67,0],[0.5,19.33,0],[0.5,20,0],[0.5,20.11,0],[0.5,20.11,0],[0.5,20.11,0],[0.5,20.11,0],[0.5,20.11,0],[0.5,20.11,0],[0.5,20.11,0],[0.5,20.11,0],[0.5,20.11,0],[0.5,20.11,0],[0.5,20.11,0],[0.5,20.11,0]];labelBackgroundColor=none;rounded=0;html=1;whiteSpace=wrap;verticalAlign=middle;align=center;overflow=width;strokeColor=none;;html=1;" parent="39" vertex="1">
          <mxGeometry width="116" height="36" as="geometry" />
        </mxCell>
        <UserObject label="" tags="Arkaplan" id="44">
          <mxCell style="vsdxID=72;fillColor=#FFFFFF;gradientColor=none;shape=stencil(nZBLDoAgDERP0z3SIyjew0SURgSD+Lu9kMZoXLhwN9O+tukAlrNpJg1SzDH4QW/URgNYgZTkjA4UkwJUgGXng+6DX1zLfmoymdXo17xh5zmRJ6Q42BWCfc2oJfdAr+Yv+AP9Cb7OJ3H/2JG1HNGz/84klThPVCc=);points=[[0.5,11.56,0],[0.5,12.11,0],[0.5,13,0],[0.5,13.78,0],[0.5,14.44,0],[0.5,14.89,0],[0.5,15.78,0],[0.5,16.56,0],[0.5,17.22,0],[0.5,17.67,0],[0.5,18.67,0],[0.5,19.33,0],[0.5,20,0],[0.5,20.39,0],[0.5,20.39,0],[0.5,20.39,0],[0.5,20.39,0],[0.5,20.39,0],[0.5,20.39,0],[0.5,20.39,0],[0.5,20.39,0],[0.5,20.39,0],[0.5,20.39,0],[0.5,20.39,0],[0.5,20.39,0]];labelBackgroundColor=none;rounded=0;html=1;whiteSpace=wrap;" parent="1" vertex="1">
            <mxGeometry x="1440" y="82" width="94" height="36" as="geometry" />
          </mxCell>
        </UserObject>
        <mxCell id="45" style="vsdxID=73;fillColor=#FFFFFF;gradientColor=none;shape=stencil(nZBLDoAgDERP0z3SIyjew0SURgSD+Lu9kMZoXLhwN9O+tukAlrNpJg1SzDH4QW/URgNYgZTkjA4UkwJUgGXng+6DX1zLfmoymdXo17xh5zmRJ6Q42BWCfc2oJfdAr+Yv+AP9Cb7OJ3H/2JG1HNGz/84klThPVCc=);points=[[0.5,1.67,0],[0.5,2.33,0],[0.5,3,0],[0.5,3.78,0],[0.5,4.33,0],[0.5,5.44,0],[0.5,6,0],[0.5,6.56,0],[0.5,7.33,0],[0.5,8.22,0],[0.5,8.78,0],[0.5,9.33,0],[0.5,10.22,0],[0.5,11,0],[0.5,11.29,0],[0.5,11.29,0],[0.5,11.29,0],[0.5,11.29,0],[0.5,11.29,0],[0.5,11.29,0],[0.5,11.29,0],[0.5,11.29,0],[0.5,11.29,0],[0.5,11.29,0],[0.5,11.29,0],[0.5,11.29,0],[0.5,11.29,0],[0.5,11.29,0],[0.5,11.29,0],[0.5,11.29,0],[0.5,11.29,0],[0.5,11.29,0],[0.5,11.29,0],[0.5,11.29,0],[0.5,11.29,0],[0.5,11.29,0],[0.5,11.29,0],[0.5,11.29,0],[0.5,11.29,0]];labelBackgroundColor=none;rounded=0;html=1;whiteSpace=wrap;" parent="44" vertex="1">
          <mxGeometry x="11" width="72" height="36" as="geometry" />
        </mxCell>
        <mxCell id="46" style="vsdxID=74;fillColor=#FFFFFF;gradientColor=none;shape=stencil(1VFBDsIgEHwNRxKE+IJa/7GxSyFiaRa07e+FLImtB+/eZnZmdgkjTJcczCi0SpniHRc/ZCfMRWjtJ4fkc0HC9MJ0NhKOFJ/TwHyG6qzoEV91w8q5s6oRrTamJ8X8yl6gW9GoeZuVtgP9vUitElafJMUM2cfpEA1AI8pyRNoAYwuylBbEeTf+h2cV8Plm60Pglvb6dy1lxJWa/g0=);points=[[0.5,1.67,0],[0.5,2.33,0],[0.5,3,0],[0.5,3.78,0],[0.5,4.33,0],[0.5,5.44,0],[0.5,6,0],[0.5,6.56,0],[0.5,7.33,0],[0.5,8.22,0],[0.5,8.78,0],[0.5,9.33,0],[0.5,10.22,0],[0.5,11,0],[0.5,11.29,0],[0.5,11.29,0],[0.5,11.29,0],[0.5,11.29,0],[0.5,11.29,0],[0.5,11.29,0],[0.5,11.29,0],[0.5,11.29,0],[0.5,11.29,0],[0.5,11.29,0],[0.5,11.29,0],[0.5,11.29,0],[0.5,11.29,0],[0.5,11.29,0],[0.5,11.29,0],[0.5,11.29,0],[0.5,11.29,0],[0.5,11.29,0],[0.5,11.29,0],[0.5,11.29,0],[0.5,11.29,0],[0.5,11.29,0],[0.5,11.29,0],[0.5,11.29,0],[0.5,11.29,0]];labelBackgroundColor=none;rounded=0;html=1;whiteSpace=wrap;" parent="44" vertex="1">
          <mxGeometry x="35" y="-5" width="24" height="1" as="geometry" />
        </mxCell>
        <mxCell id="47" value="" style="vsdxID=76;edgeStyle=none;dashed=1;startArrow=none;endArrow=none;startSize=5;endSize=5;spacingTop=0;spacingBottom=0;spacingLeft=0;spacingRight=0;verticalAlign=middle;html=1;labelBackgroundColor=#ffffff;rounded=0;" parent="44" edge="1">
          <mxGeometry relative="1" as="geometry">
            <Array as="points" />
            <mxPoint x="47" y="36" as="sourcePoint" />
            <mxPoint x="47" y="734" as="targetPoint" />
          </mxGeometry>
        </mxCell>
        <mxCell id="48" value="&lt;div style=&quot;font-size: 1px&quot;&gt;&lt;font style=&quot;font-size:16.93px;font-family:Calibri;color:#000000;direction:ltr;letter-spacing:0px;line-height:120%;opacity:1&quot;&gt;&lt;b&gt;Personeller&lt;br/&gt;&lt;/b&gt;&lt;/font&gt;&lt;/div&gt;" style="text;vsdxID=72;fillColor=none;gradientColor=none;points=[[0.5,11.56,0],[0.5,12.11,0],[0.5,13,0],[0.5,13.78,0],[0.5,14.44,0],[0.5,14.89,0],[0.5,15.78,0],[0.5,16.56,0],[0.5,17.22,0],[0.5,17.67,0],[0.5,18.67,0],[0.5,19.33,0],[0.5,20,0],[0.5,20.39,0],[0.5,20.39,0],[0.5,20.39,0],[0.5,20.39,0],[0.5,20.39,0],[0.5,20.39,0],[0.5,20.39,0],[0.5,20.39,0],[0.5,20.39,0],[0.5,20.39,0],[0.5,20.39,0],[0.5,20.39,0]];labelBackgroundColor=none;rounded=0;html=1;whiteSpace=wrap;verticalAlign=middle;align=center;overflow=width;strokeColor=none;;html=1;" parent="44" vertex="1">
          <mxGeometry width="94" height="36" as="geometry" />
        </mxCell>
        <UserObject label="" tags="Arkaplan" id="49">
          <mxCell style="vsdxID=81;rotation=270;fillColor=#FFFFFF;gradientColor=none;shape=stencil(nZBLDoAgDERP0z3SIyjew0SURgSD+Lu9kMZoXLhwN9O+tukAlrNpJg1SzDH4QW/URgNYgZTkjA4UkwJUgGXng+6DX1zLfmoymdXo17xh5zmRJ6Q42BWCfc2oJfdAr+Yv+AP9Cb7OJ3H/2JG1HNGz/84klThPVCc=);points=[[1,1,0],[1,0,0],[0.77,1,0],[0.77,0,0],[0.54,1,0],[0.54,0,0],[0.31,1,0],[0.31,0,0],[0.04,1,0],[0.04,0,0],[1,1,0],[1,0,0],[1,1,0],[1,0,0],[1,1,0],[1,0,0],[1,1,0],[1,0,0],[1,1,0],[1,0,0],[1,1,0],[1,0,0],[1,1,0],[1,0,0],[1,1,0],[1,0,0],[1,1,0],[1,0,0],[1,1,0],[1,0,0],[1,1,0],[1,0,0],[1,1,0],[1,0,0],[1,1,0],[1,0,0],[1,1,0],[1,0,0],[1,1,0],[1,0,0]];labelBackgroundColor=none;rounded=0;html=1;whiteSpace=wrap;" parent="1" vertex="1">
            <mxGeometry x="898" y="188" width="104" height="12" as="geometry" />
          </mxCell>
        </UserObject>
        <UserObject label="" tags="Arkaplan" id="50">
          <mxCell style="vsdxID=82;rotation=270;fillColor=#FFFFFF;gradientColor=none;shape=stencil(nZBLDoAgDERP0z3SIyjew0SURgSD+Lu9kMZoXLhwN9O+tukAlrNpJg1SzDH4QW/URgNYgZTkjA4UkwJUgGXng+6DX1zLfmoymdXo17xh5zmRJ6Q42BWCfc2oJfdAr+Yv+AP9Cb7OJ3H/2JG1HNGz/84klThPVCc=);points=[[1,1,0],[1,0,0],[0.77,1,0],[0.77,0,0],[0.54,1,0],[0.54,0,0],[0.31,1,0],[0.31,0,0],[0.04,1,0],[0.04,0,0],[1,1,0],[1,0,0],[1,1,0],[1,0,0],[1,1,0],[1,0,0],[1,1,0],[1,0,0],[1,1,0],[1,0,0],[1,1,0],[1,0,0],[1,1,0],[1,0,0],[1,1,0],[1,0,0],[1,1,0],[1,0,0],[1,1,0],[1,0,0],[1,1,0],[1,0,0],[1,1,0],[1,0,0],[1,1,0],[1,0,0],[1,1,0],[1,0,0],[1,1,0],[1,0,0]];labelBackgroundColor=none;rounded=0;html=1;whiteSpace=wrap;" parent="1" vertex="1">
            <mxGeometry x="1090" y="277" width="91" height="12" as="geometry" />
          </mxCell>
        </UserObject>
        <UserObject label="" tags="Arkaplan" id="51">
          <mxCell style="vsdxID=83;rotation=270;fillColor=#FFFFFF;gradientColor=none;shape=stencil(nZBLDoAgDERP0z3SIyjew0SURgSD+Lu9kMZoXLhwN9O+tukAlrNpJg1SzDH4QW/URgNYgZTkjA4UkwJUgGXng+6DX1zLfmoymdXo17xh5zmRJ6Q42BWCfc2oJfdAr+Yv+AP9Cb7OJ3H/2JG1HNGz/84klThPVCc=);points=[[1,1,0],[1,0,0],[0.77,1,0],[0.77,0,0],[0.54,1,0],[0.54,0,0],[0.31,1,0],[0.31,0,0],[0.04,1,0],[0.04,0,0],[1,1,0],[1,0,0],[1,1,0],[1,0,0],[1,1,0],[1,0,0],[1,1,0],[1,0,0],[1,1,0],[1,0,0],[1,1,0],[1,0,0],[1,1,0],[1,0,0],[1,1,0],[1,0,0],[1,1,0],[1,0,0],[1,1,0],[1,0,0],[1,1,0],[1,0,0],[1,1,0],[1,0,0],[1,1,0],[1,0,0],[1,1,0],[1,0,0],[1,1,0],[1,0,0]];labelBackgroundColor=none;rounded=0;html=1;whiteSpace=wrap;" parent="1" vertex="1">
            <mxGeometry x="1294" y="362" width="100" height="12" as="geometry" />
          </mxCell>
        </UserObject>
        <UserObject label="" tags="Arkaplan" id="52">
          <mxCell style="vsdxID=84;fillColor=#FFFFFF;gradientColor=none;fillOpacity=0;shape=stencil(nZBLDoAgDERP0z3SIyjew0SURgSD+Lu9kMZoXLhwN9O+tukAlrNpJg1SzDH4QW/URgNYgZTkjA4UkwJUgGXng+6DX1zLfmoymdXo17xh5zmRJ6Q42BWCfc2oJfdAr+Yv+AP9Cb7OJ3H/2JG1HNGz/84klThPVCc=);points=[];labelBackgroundColor=none;rounded=0;html=1;whiteSpace=wrap;" parent="1" vertex="1">
            <mxGeometry x="630" y="140" width="730" height="280" as="geometry" />
          </mxCell>
        </UserObject>
        <mxCell id="53" value="&lt;div style=&quot;font-size: 1px&quot;&gt;&lt;p style=&quot;text-align:left;margin-left:0;margin-right:0;margin-top:0px;margin-bottom:0px;text-indent:0;vertical-align:middle;direction:ltr;&quot;&gt;&lt;font style=&quot;font-size:11.29px;font-family:Calibri;color:#000000;direction:ltr;letter-spacing:0px;line-height:120%;opacity:1&quot;&gt;&lt;b&gt;döngü&lt;br/&gt;&lt;/b&gt;&lt;/font&gt;&lt;/p&gt;&lt;/div&gt;" style="verticalAlign=middle;align=left;overflow=width;vsdxID=85;fillColor=#ffffff;gradientColor=none;shape=stencil(UzV2Ls5ILEhVNTIoLinKz04tz0wpyVA1dlE1MsrMy0gtyiwBslSNXVWNndPyi1LTi/JL81Ig/IJEkEoQKze/DGRCBUSfAUiHkUElhGdoAOG7QZTmZOYhKTU0JEGtkZ6xOYpyU0s9cxNSNOAx3YA8hWguBjIQoZKWmZMDCVRkefRQBApBYsDYFQA=);points=[];labelBackgroundColor=none;rounded=0;html=1;whiteSpace=wrap;" parent="52" vertex="1">
          <mxGeometry width="730" height="24" as="geometry" />
        </mxCell>
        <mxCell id="54" value="&lt;div style=&quot;font-size: 1px&quot;&gt;&lt;/div&gt;" style="verticalAlign=middle;align=left;overflow=width;vsdxID=86;fillColor=none;gradientColor=none;points=[];labelBackgroundColor=none;rounded=0;html=1;strokeColor=none;whiteSpace=wrap;" parent="52" vertex="1">
          <mxGeometry y="24" width="90" height="24" as="geometry" />
        </mxCell>
        <UserObject label="&lt;div style=&quot;font-size: 1px&quot;&gt;&lt;font style=&quot;font-size:11.29px;font-family:Calibri;color:#000000;direction:ltr;letter-spacing:0px;line-height:120%;opacity:1&quot;&gt;Bilet Yazdır&lt;br/&gt;&lt;/font&gt;&lt;/div&gt;" tags="Bağlayıcı" id="jZbw4CUbYrpoenlUI-Ry-92">
          <mxCell style="vsdxID=45;edgeStyle=none;dashed=1;startArrow=none;endArrow=open;startSize=2;endSize=7;spacingTop=0;spacingBottom=0;spacingLeft=0;spacingRight=0;verticalAlign=middle;html=1;labelBackgroundColor=#ffffff;rounded=0;align=center;entryX=0.5;entryY=8.777777777777779;entryDx=0;entryDy=0;entryPerimeter=0;" edge="1" parent="52">
            <mxGeometry x="0.3333" relative="1" as="geometry">
              <mxPoint as="offset" />
              <Array as="points" />
              <mxPoint x="500" y="170" as="sourcePoint" />
              <mxPoint x="110" y="170" as="targetPoint" />
            </mxGeometry>
          </mxCell>
        </UserObject>
        <UserObject label="" tags="Arkaplan" id="55">
          <mxCell style="vsdxID=87;rotation=270;fillColor=#FFFFFF;gradientColor=none;shape=stencil(nZBLDoAgDERP0z3SIyjew0SURgSD+Lu9kMZoXLhwN9O+tukAlrNpJg1SzDH4QW/URgNYgZTkjA4UkwJUgGXng+6DX1zLfmoymdXo17xh5zmRJ6Q42BWCfc2oJfdAr+Yv+AP9Cb7OJ3H/2JG1HNGz/84klThPVCc=);points=[[1,1,0],[1,0,0],[0.77,1,0],[0.77,0,0],[0.54,1,0],[0.54,0,0],[0.31,1,0],[0.31,0,0],[0.04,1,0],[0.04,0,0],[1,1,0],[1,0,0],[1,1,0],[1,0,0],[1,1,0],[1,0,0],[1,1,0],[1,0,0],[1,1,0],[1,0,0],[1,1,0],[1,0,0],[1,1,0],[1,0,0],[1,1,0],[1,0,0],[1,1,0],[1,0,0],[1,1,0],[1,0,0],[1,1,0],[1,0,0],[1,1,0],[1,0,0],[1,1,0],[1,0,0],[1,1,0],[1,0,0],[1,1,0],[1,0,0]];labelBackgroundColor=none;rounded=0;html=1;whiteSpace=wrap;" parent="1" vertex="1">
            <mxGeometry x="1453" y="458" width="68" height="12" as="geometry" />
          </mxCell>
        </UserObject>
        <UserObject label="" tags="Arkaplan" id="56">
          <mxCell style="vsdxID=88;rotation=270;fillColor=#FFFFFF;gradientColor=none;shape=stencil(nZBLDoAgDERP0z3SIyjew0SURgSD+Lu9kMZoXLhwN9O+tukAlrNpJg1SzDH4QW/URgNYgZTkjA4UkwJUgGXng+6DX1zLfmoymdXo17xh5zmRJ6Q42BWCfc2oJfdAr+Yv+AP9Cb7OJ3H/2JG1HNGz/84klThPVCc=);points=[[1,1,0],[1,0,0],[0.77,1,0],[0.77,0,0],[0.54,1,0],[0.54,0,0],[0.31,1,0],[0.31,0,0],[0.04,1,0],[0.04,0,0],[1,1,0],[1,0,0],[1,1,0],[1,0,0],[1,1,0],[1,0,0],[1,1,0],[1,0,0],[1,1,0],[1,0,0],[1,1,0],[1,0,0],[1,1,0],[1,0,0],[1,1,0],[1,0,0],[1,1,0],[1,0,0],[1,1,0],[1,0,0],[1,1,0],[1,0,0],[1,1,0],[1,0,0],[1,1,0],[1,0,0],[1,1,0],[1,0,0],[1,1,0],[1,0,0]];labelBackgroundColor=none;rounded=0;html=1;whiteSpace=wrap;" parent="1" vertex="1">
            <mxGeometry x="454" y="520" width="152" height="12" as="geometry" />
          </mxCell>
        </UserObject>
        <UserObject label="" tags="Arkaplan" id="57">
          <mxCell style="vsdxID=89;rotation=270;fillColor=#FFFFFF;gradientColor=none;shape=stencil(nZBLDoAgDERP0z3SIyjew0SURgSD+Lu9kMZoXLhwN9O+tukAlrNpJg1SzDH4QW/URgNYgZTkjA4UkwJUgGXng+6DX1zLfmoymdXo17xh5zmRJ6Q42BWCfc2oJfdAr+Yv+AP9Cb7OJ3H/2JG1HNGz/84klThPVCc=);points=[[1,1,0],[1,0,0],[0.77,1,0],[0.77,0,0],[0.54,1,0],[0.54,0,0],[0.31,1,0],[0.31,0,0],[0.04,1,0],[0.04,0,0],[1,1,0],[1,0,0],[1,1,0],[1,0,0],[1,1,0],[1,0,0],[1,1,0],[1,0,0],[1,1,0],[1,0,0],[1,1,0],[1,0,0],[1,1,0],[1,0,0],[1,1,0],[1,0,0],[1,1,0],[1,0,0],[1,1,0],[1,0,0],[1,1,0],[1,0,0],[1,1,0],[1,0,0],[1,1,0],[1,0,0],[1,1,0],[1,0,0],[1,1,0],[1,0,0]];labelBackgroundColor=none;rounded=0;html=1;whiteSpace=wrap;" parent="1" vertex="1">
            <mxGeometry x="1106" y="522" width="60" height="12" as="geometry" />
          </mxCell>
        </UserObject>
        <UserObject label="" tags="Arkaplan" id="58">
          <mxCell style="vsdxID=93;fillColor=#FFFFFF;gradientColor=none;shape=stencil(nZBLDoAgDERP0z3SIyjew0SURgSD+Lu9kMZoXLhwN9O+tukAlrNpJg1SzDH4QW/URgNYgZTkjA4UkwJUgGXng+6DX1zLfmoymdXo17xh5zmRJ6Q42BWCfc2oJfdAr+Yv+AP9Cb7OJ3H/2JG1HNGz/84klThPVCc=);points=[[0.5,1.67,0],[0.5,2.33,0],[0.5,3,0],[0.5,3.78,0],[0.5,4.33,0],[0.5,5.44,0],[0.5,6,0],[0.5,6.56,0],[0.5,7.33,0],[0.5,8.22,0],[0.5,8.78,0],[0.5,9.33,0],[0.5,10.22,0],[0.5,11,0],[0.5,11.29,0],[0.5,11.29,0],[0.5,11.29,0],[0.5,11.29,0],[0.5,11.29,0],[0.5,11.29,0],[0.5,11.29,0],[0.5,11.29,0],[0.5,11.29,0],[0.5,11.29,0],[0.5,11.29,0],[0.5,11.29,0],[0.5,11.29,0],[0.5,11.29,0],[0.5,11.29,0],[0.5,11.29,0],[0.5,11.29,0],[0.5,11.29,0],[0.5,11.29,0],[0.5,11.29,0],[0.5,11.29,0],[0.5,11.29,0],[0.5,11.29,0],[0.5,11.29,0],[0.5,11.29,0]];labelBackgroundColor=none;rounded=0;html=1;whiteSpace=wrap;" parent="1" vertex="1">
            <mxGeometry x="1575" y="82" width="72" height="36" as="geometry" />
          </mxCell>
        </UserObject>
        <mxCell id="59" style="vsdxID=94;fillColor=#FFFFFF;gradientColor=none;shape=stencil(nZBLDoAgDERP0z3SIyjew0SURgSD+Lu9kMZoXLhwN9O+tukAlrNpJg1SzDH4QW/URgNYgZTkjA4UkwJUgGXng+6DX1zLfmoymdXo17xh5zmRJ6Q42BWCfc2oJfdAr+Yv+AP9Cb7OJ3H/2JG1HNGz/84klThPVCc=);points=[[0.5,1.67,0],[0.5,2.33,0],[0.5,3,0],[0.5,3.78,0],[0.5,4.33,0],[0.5,5.44,0],[0.5,6,0],[0.5,6.56,0],[0.5,7.33,0],[0.5,8.22,0],[0.5,8.78,0],[0.5,9.33,0],[0.5,10.22,0],[0.5,11,0],[0.5,11.29,0],[0.5,11.29,0],[0.5,11.29,0],[0.5,11.29,0],[0.5,11.29,0],[0.5,11.29,0],[0.5,11.29,0],[0.5,11.29,0],[0.5,11.29,0],[0.5,11.29,0],[0.5,11.29,0],[0.5,11.29,0],[0.5,11.29,0],[0.5,11.29,0],[0.5,11.29,0],[0.5,11.29,0],[0.5,11.29,0],[0.5,11.29,0],[0.5,11.29,0],[0.5,11.29,0],[0.5,11.29,0],[0.5,11.29,0],[0.5,11.29,0],[0.5,11.29,0],[0.5,11.29,0]];labelBackgroundColor=none;rounded=0;html=1;whiteSpace=wrap;" parent="58" vertex="1">
          <mxGeometry width="72" height="36" as="geometry" />
        </mxCell>
        <mxCell id="60" style="vsdxID=95;fillColor=#FFFFFF;gradientColor=none;shape=stencil(1VFBDsIgEHwNRxKE+IJa/7GxSyFiaRa07e+FLImtB+/eZnZmdgkjTJcczCi0SpniHRc/ZCfMRWjtJ4fkc0HC9MJ0NhKOFJ/TwHyG6qzoEV91w8q5s6oRrTamJ8X8yl6gW9GoeZuVtgP9vUitElafJMUM2cfpEA1AI8pyRNoAYwuylBbEeTf+h2cV8Plm60Pglvb6dy1lxJWa/g0=);points=[[0.5,1.67,0],[0.5,2.33,0],[0.5,3,0],[0.5,3.78,0],[0.5,4.33,0],[0.5,5.44,0],[0.5,6,0],[0.5,6.56,0],[0.5,7.33,0],[0.5,8.22,0],[0.5,8.78,0],[0.5,9.33,0],[0.5,10.22,0],[0.5,11,0],[0.5,11.29,0],[0.5,11.29,0],[0.5,11.29,0],[0.5,11.29,0],[0.5,11.29,0],[0.5,11.29,0],[0.5,11.29,0],[0.5,11.29,0],[0.5,11.29,0],[0.5,11.29,0],[0.5,11.29,0],[0.5,11.29,0],[0.5,11.29,0],[0.5,11.29,0],[0.5,11.29,0],[0.5,11.29,0],[0.5,11.29,0],[0.5,11.29,0],[0.5,11.29,0],[0.5,11.29,0],[0.5,11.29,0],[0.5,11.29,0],[0.5,11.29,0],[0.5,11.29,0],[0.5,11.29,0]];labelBackgroundColor=none;rounded=0;html=1;whiteSpace=wrap;" parent="58" vertex="1">
          <mxGeometry x="24" y="-5" width="24" height="1" as="geometry" />
        </mxCell>
        <mxCell id="61" value="" style="vsdxID=97;edgeStyle=none;dashed=1;startArrow=none;endArrow=none;startSize=5;endSize=5;spacingTop=0;spacingBottom=0;spacingLeft=0;spacingRight=0;verticalAlign=middle;html=1;labelBackgroundColor=#ffffff;rounded=0;" parent="58" edge="1">
          <mxGeometry relative="1" as="geometry">
            <Array as="points" />
            <mxPoint x="36" y="36" as="sourcePoint" />
            <mxPoint x="36" y="732" as="targetPoint" />
          </mxGeometry>
        </mxCell>
        <mxCell id="62" value="&lt;div style=&quot;font-size: 1px&quot;&gt;&lt;font style=&quot;font-size:16.93px;font-family:Calibri;color:#000000;direction:ltr;letter-spacing:0px;line-height:120%;opacity:1&quot;&gt;&lt;b&gt;Yolcular&lt;br/&gt;&lt;/b&gt;&lt;/font&gt;&lt;/div&gt;" style="text;vsdxID=93;fillColor=none;gradientColor=none;points=[[0.5,1.67,0],[0.5,2.33,0],[0.5,3,0],[0.5,3.78,0],[0.5,4.33,0],[0.5,5.44,0],[0.5,6,0],[0.5,6.56,0],[0.5,7.33,0],[0.5,8.22,0],[0.5,8.78,0],[0.5,9.33,0],[0.5,10.22,0],[0.5,11,0],[0.5,11.29,0],[0.5,11.29,0],[0.5,11.29,0],[0.5,11.29,0],[0.5,11.29,0],[0.5,11.29,0],[0.5,11.29,0],[0.5,11.29,0],[0.5,11.29,0],[0.5,11.29,0],[0.5,11.29,0],[0.5,11.29,0],[0.5,11.29,0],[0.5,11.29,0],[0.5,11.29,0],[0.5,11.29,0],[0.5,11.29,0],[0.5,11.29,0],[0.5,11.29,0],[0.5,11.29,0],[0.5,11.29,0],[0.5,11.29,0],[0.5,11.29,0],[0.5,11.29,0],[0.5,11.29,0]];labelBackgroundColor=none;rounded=0;html=1;whiteSpace=wrap;verticalAlign=middle;align=center;overflow=width;strokeColor=none;;html=1;" parent="58" vertex="1">
          <mxGeometry width="72" height="36" as="geometry" />
        </mxCell>
        <UserObject label="" tags="Arkaplan" id="63">
          <mxCell style="vsdxID=99;rotation=270;fillColor=#FFFFFF;gradientColor=none;shape=stencil(nZBLDoAgDERP0z3SIyjew0SURgSD+Lu9kMZoXLhwN9O+tukAlrNpJg1SzDH4QW/URgNYgZTkjA4UkwJUgGXng+6DX1zLfmoymdXo17xh5zmRJ6Q42BWCfc2oJfdAr+Yv+AP9Cb7OJ3H/2JG1HNGz/84klThPVCc=);points=[[1,1,0],[1,0,0],[0.77,1,0],[0.77,0,0],[0.54,1,0],[0.54,0,0],[0.31,1,0],[0.31,0,0],[0.04,1,0],[0.04,0,0],[1,1,0],[1,0,0],[1,1,0],[1,0,0],[1,1,0],[1,0,0],[1,1,0],[1,0,0],[1,1,0],[1,0,0],[1,1,0],[1,0,0],[1,1,0],[1,0,0],[1,1,0],[1,0,0],[1,1,0],[1,0,0],[1,1,0],[1,0,0],[1,1,0],[1,0,0],[1,1,0],[1,0,0],[1,1,0],[1,0,0],[1,1,0],[1,0,0],[1,1,0],[1,0,0]];labelBackgroundColor=none;rounded=0;html=1;whiteSpace=wrap;" parent="1" vertex="1">
            <mxGeometry x="927" y="648" width="46" height="12" as="geometry" />
          </mxCell>
        </UserObject>
        <UserObject label="" tags="Arkaplan" id="64">
          <mxCell style="vsdxID=100;rotation=270;fillColor=#FFFFFF;gradientColor=none;shape=stencil(nZBLDoAgDERP0z3SIyjew0SURgSD+Lu9kMZoXLhwN9O+tukAlrNpJg1SzDH4QW/URgNYgZTkjA4UkwJUgGXng+6DX1zLfmoymdXo17xh5zmRJ6Q42BWCfc2oJfdAr+Yv+AP9Cb7OJ3H/2JG1HNGz/84klThPVCc=);points=[[1,1,0],[1,0,0],[0.77,1,0],[0.77,0,0],[0.54,1,0],[0.54,0,0],[0.31,1,0],[0.31,0,0],[0.04,1,0],[0.04,0,0],[1,1,0],[1,0,0],[1,1,0],[1,0,0],[1,1,0],[1,0,0],[1,1,0],[1,0,0],[1,1,0],[1,0,0],[1,1,0],[1,0,0],[1,1,0],[1,0,0],[1,1,0],[1,0,0],[1,1,0],[1,0,0],[1,1,0],[1,0,0],[1,1,0],[1,0,0],[1,1,0],[1,0,0],[1,1,0],[1,0,0],[1,1,0],[1,0,0],[1,1,0],[1,0,0]];labelBackgroundColor=none;rounded=0;html=1;whiteSpace=wrap;" parent="1" vertex="1">
            <mxGeometry x="1116" y="676" width="40" height="12" as="geometry" />
          </mxCell>
        </UserObject>
        <UserObject label="" tags="Arkaplan" id="65">
          <mxCell style="vsdxID=101;rotation=270;fillColor=#FFFFFF;gradientColor=none;shape=stencil(nZBLDoAgDERP0z3SIyjew0SURgSD+Lu9kMZoXLhwN9O+tukAlrNpJg1SzDH4QW/URgNYgZTkjA4UkwJUgGXng+6DX1zLfmoymdXo17xh5zmRJ6Q42BWCfc2oJfdAr+Yv+AP9Cb7OJ3H/2JG1HNGz/84klThPVCc=);points=[[1,1,0],[1,0,0],[0.77,1,0],[0.77,0,0],[0.54,1,0],[0.54,0,0],[0.31,1,0],[0.31,0,0],[0.04,1,0],[0.04,0,0],[1,1,0],[1,0,0],[1,1,0],[1,0,0],[1,1,0],[1,0,0],[1,1,0],[1,0,0],[1,1,0],[1,0,0],[1,1,0],[1,0,0],[1,1,0],[1,0,0],[1,1,0],[1,0,0],[1,1,0],[1,0,0],[1,1,0],[1,0,0],[1,1,0],[1,0,0],[1,1,0],[1,0,0],[1,1,0],[1,0,0],[1,1,0],[1,0,0],[1,1,0],[1,0,0]];labelBackgroundColor=none;rounded=0;html=1;whiteSpace=wrap;" parent="1" vertex="1">
            <mxGeometry x="1463" y="772" width="48" height="12" as="geometry" />
          </mxCell>
        </UserObject>
        <UserObject label="" tags="Arkaplan" id="66">
          <mxCell style="vsdxID=102;rotation=270;fillColor=#FFFFFF;gradientColor=none;shape=stencil(nZBLDoAgDERP0z3SIyjew0SURgSD+Lu9kMZoXLhwN9O+tukAlrNpJg1SzDH4QW/URgNYgZTkjA4UkwJUgGXng+6DX1zLfmoymdXo17xh5zmRJ6Q42BWCfc2oJfdAr+Yv+AP9Cb7OJ3H/2JG1HNGz/84klThPVCc=);points=[[1,1,0],[1,0,0],[0.77,1,0],[0.77,0,0],[0.54,1,0],[0.54,0,0],[0.31,1,0],[0.31,0,0],[0.04,1,0],[0.04,0,0],[1,1,0],[1,0,0],[1,1,0],[1,0,0],[1,1,0],[1,0,0],[1,1,0],[1,0,0],[1,1,0],[1,0,0],[1,1,0],[1,0,0],[1,1,0],[1,0,0],[1,1,0],[1,0,0],[1,1,0],[1,0,0],[1,1,0],[1,0,0],[1,1,0],[1,0,0],[1,1,0],[1,0,0],[1,1,0],[1,0,0],[1,1,0],[1,0,0],[1,1,0],[1,0,0]];labelBackgroundColor=none;rounded=0;html=1;whiteSpace=wrap;" parent="1" vertex="1">
            <mxGeometry x="1593" y="714" width="36" height="12" as="geometry" />
          </mxCell>
        </UserObject>
        <UserObject label="" tags="Arkaplan" id="67">
          <mxCell style="vsdxID=103;fillColor=#FFFFFF;gradientColor=none;shape=stencil(nZBLDoAgDERP0z3SIyjew0SURgSD+Lu9kMZoXLhwN9O+tukAlrNpJg1SzDH4QW/URgNYgZTkjA4UkwJUgGXng+6DX1zLfmoymdXo17xh5zmRJ6Q42BWCfc2oJfdAr+Yv+AP9Cb7OJ3H/2JG1HNGz/84klThPVCc=);points=[[0.5,1.67,0],[0.5,2.33,0],[0.5,3,0],[0.5,3.78,0],[0.5,4.33,0],[0.5,5.44,0],[0.5,6,0],[0.5,6.56,0],[0.5,7.33,0],[0.5,8.22,0],[0.5,8.78,0],[0.5,9.33,0],[0.5,10.22,0],[0.5,11,0],[0.5,11.29,0],[0.5,11.29,0],[0.5,11.29,0],[0.5,11.29,0],[0.5,11.29,0],[0.5,11.29,0],[0.5,11.29,0],[0.5,11.29,0],[0.5,11.29,0],[0.5,11.29,0],[0.5,11.29,0],[0.5,11.29,0],[0.5,11.29,0],[0.5,11.29,0],[0.5,11.29,0],[0.5,11.29,0],[0.5,11.29,0],[0.5,11.29,0],[0.5,11.29,0],[0.5,11.29,0],[0.5,11.29,0],[0.5,11.29,0],[0.5,11.29,0],[0.5,11.29,0],[0.5,11.29,0]];labelBackgroundColor=none;rounded=0;html=1;whiteSpace=wrap;" parent="1" vertex="1">
            <mxGeometry x="1688" y="82" width="72" height="36" as="geometry" />
          </mxCell>
        </UserObject>
        <mxCell id="68" style="vsdxID=104;fillColor=#FFFFFF;gradientColor=none;shape=stencil(nZBLDoAgDERP0z3SIyjew0SURgSD+Lu9kMZoXLhwN9O+tukAlrNpJg1SzDH4QW/URgNYgZTkjA4UkwJUgGXng+6DX1zLfmoymdXo17xh5zmRJ6Q42BWCfc2oJfdAr+Yv+AP9Cb7OJ3H/2JG1HNGz/84klThPVCc=);points=[[0.5,1.67,0],[0.5,2.33,0],[0.5,3,0],[0.5,3.78,0],[0.5,4.33,0],[0.5,5.44,0],[0.5,6,0],[0.5,6.56,0],[0.5,7.33,0],[0.5,8.22,0],[0.5,8.78,0],[0.5,9.33,0],[0.5,10.22,0],[0.5,11,0],[0.5,11.29,0],[0.5,11.29,0],[0.5,11.29,0],[0.5,11.29,0],[0.5,11.29,0],[0.5,11.29,0],[0.5,11.29,0],[0.5,11.29,0],[0.5,11.29,0],[0.5,11.29,0],[0.5,11.29,0],[0.5,11.29,0],[0.5,11.29,0],[0.5,11.29,0],[0.5,11.29,0],[0.5,11.29,0],[0.5,11.29,0],[0.5,11.29,0],[0.5,11.29,0],[0.5,11.29,0],[0.5,11.29,0],[0.5,11.29,0],[0.5,11.29,0],[0.5,11.29,0],[0.5,11.29,0]];labelBackgroundColor=none;rounded=0;html=1;whiteSpace=wrap;" parent="67" vertex="1">
          <mxGeometry width="72" height="36" as="geometry" />
        </mxCell>
        <mxCell id="69" style="vsdxID=105;fillColor=#FFFFFF;gradientColor=none;shape=stencil(1VFBDsIgEHwNRxKE+IJa/7GxSyFiaRa07e+FLImtB+/eZnZmdgkjTJcczCi0SpniHRc/ZCfMRWjtJ4fkc0HC9MJ0NhKOFJ/TwHyG6qzoEV91w8q5s6oRrTamJ8X8yl6gW9GoeZuVtgP9vUitElafJMUM2cfpEA1AI8pyRNoAYwuylBbEeTf+h2cV8Plm60Pglvb6dy1lxJWa/g0=);points=[[0.5,1.67,0],[0.5,2.33,0],[0.5,3,0],[0.5,3.78,0],[0.5,4.33,0],[0.5,5.44,0],[0.5,6,0],[0.5,6.56,0],[0.5,7.33,0],[0.5,8.22,0],[0.5,8.78,0],[0.5,9.33,0],[0.5,10.22,0],[0.5,11,0],[0.5,11.29,0],[0.5,11.29,0],[0.5,11.29,0],[0.5,11.29,0],[0.5,11.29,0],[0.5,11.29,0],[0.5,11.29,0],[0.5,11.29,0],[0.5,11.29,0],[0.5,11.29,0],[0.5,11.29,0],[0.5,11.29,0],[0.5,11.29,0],[0.5,11.29,0],[0.5,11.29,0],[0.5,11.29,0],[0.5,11.29,0],[0.5,11.29,0],[0.5,11.29,0],[0.5,11.29,0],[0.5,11.29,0],[0.5,11.29,0],[0.5,11.29,0],[0.5,11.29,0],[0.5,11.29,0]];labelBackgroundColor=none;rounded=0;html=1;whiteSpace=wrap;" parent="67" vertex="1">
          <mxGeometry x="24" y="-5" width="24" height="1" as="geometry" />
        </mxCell>
        <mxCell id="70" value="" style="vsdxID=107;edgeStyle=none;dashed=1;startArrow=none;endArrow=none;startSize=5;endSize=5;spacingTop=0;spacingBottom=0;spacingLeft=0;spacingRight=0;verticalAlign=middle;html=1;labelBackgroundColor=#ffffff;rounded=0;" parent="67" edge="1">
          <mxGeometry relative="1" as="geometry">
            <Array as="points" />
            <mxPoint x="36" y="36" as="sourcePoint" />
            <mxPoint x="36" y="730" as="targetPoint" />
          </mxGeometry>
        </mxCell>
        <mxCell id="71" value="&lt;div style=&quot;font-size: 1px&quot;&gt;&lt;font style=&quot;font-size:16.93px;font-family:Calibri;color:#000000;direction:ltr;letter-spacing:0px;line-height:120%;opacity:1&quot;&gt;&lt;b&gt;Şirketler&lt;br/&gt;&lt;/b&gt;&lt;/font&gt;&lt;/div&gt;" style="text;vsdxID=103;fillColor=none;gradientColor=none;points=[[0.5,1.67,0],[0.5,2.33,0],[0.5,3,0],[0.5,3.78,0],[0.5,4.33,0],[0.5,5.44,0],[0.5,6,0],[0.5,6.56,0],[0.5,7.33,0],[0.5,8.22,0],[0.5,8.78,0],[0.5,9.33,0],[0.5,10.22,0],[0.5,11,0],[0.5,11.29,0],[0.5,11.29,0],[0.5,11.29,0],[0.5,11.29,0],[0.5,11.29,0],[0.5,11.29,0],[0.5,11.29,0],[0.5,11.29,0],[0.5,11.29,0],[0.5,11.29,0],[0.5,11.29,0],[0.5,11.29,0],[0.5,11.29,0],[0.5,11.29,0],[0.5,11.29,0],[0.5,11.29,0],[0.5,11.29,0],[0.5,11.29,0],[0.5,11.29,0],[0.5,11.29,0],[0.5,11.29,0],[0.5,11.29,0],[0.5,11.29,0],[0.5,11.29,0],[0.5,11.29,0]];labelBackgroundColor=none;rounded=0;html=1;whiteSpace=wrap;verticalAlign=middle;align=center;overflow=width;strokeColor=none;;html=1;" parent="67" vertex="1">
          <mxGeometry width="72" height="36" as="geometry" />
        </mxCell>
        <UserObject label="" tags="Arkaplan" id="72">
          <mxCell style="vsdxID=108;rotation=270;fillColor=#FFFFFF;gradientColor=none;shape=stencil(nZBLDoAgDERP0z3SIyjew0SURgSD+Lu9kMZoXLhwN9O+tukAlrNpJg1SzDH4QW/URgNYgZTkjA4UkwJUgGXng+6DX1zLfmoymdXo17xh5zmRJ6Q42BWCfc2oJfdAr+Yv+AP9Cb7OJ3H/2JG1HNGz/84klThPVCc=);points=[[1,1,0],[1,0,0],[0.77,1,0],[0.77,0,0],[0.54,1,0],[0.54,0,0],[0.31,1,0],[0.31,0,0],[0.04,1,0],[0.04,0,0],[1,1,0],[1,0,0],[1,1,0],[1,0,0],[1,1,0],[1,0,0],[1,1,0],[1,0,0],[1,1,0],[1,0,0],[1,1,0],[1,0,0],[1,1,0],[1,0,0],[1,1,0],[1,0,0],[1,1,0],[1,0,0],[1,1,0],[1,0,0],[1,1,0],[1,0,0],[1,1,0],[1,0,0],[1,1,0],[1,0,0],[1,1,0],[1,0,0],[1,1,0],[1,0,0]];labelBackgroundColor=none;rounded=0;html=1;whiteSpace=wrap;" parent="1" vertex="1">
            <mxGeometry x="1698" y="738" width="52" height="12" as="geometry" />
          </mxCell>
        </UserObject>
        <UserObject label="&lt;div style=&quot;font-size: 1px&quot;&gt;&lt;p style=&quot;text-align:center;margin-left:0;margin-right:0;margin-top:0px;margin-bottom:0px;text-indent:0;vertical-align:middle;direction:ltr;&quot;&gt;&lt;font style=&quot;font-size:11.29px;font-family:Calibri;color:#000000;direction:ltr;letter-spacing:0px;line-height:120%;opacity:1&quot;&gt;Şirketlere&lt;/font&gt;&lt;font style=&quot;font-size:11.29px;font-family:Themed;color:#000000;direction:ltr;letter-spacing:0px;line-height:120%;opacity:1&quot;&gt; &lt;/font&gt;&lt;font style=&quot;font-size:11.29px;font-family:Themed;color:#000000;direction:ltr;letter-spacing:0px;line-height:120%;opacity:1&quot;&gt;Ekle&lt;/font&gt;&lt;font style=&quot;font-size:11.29px;font-family:Themed;color:#000000;direction:ltr;letter-spacing:0px;line-height:120%;opacity:1&quot;&gt;/&lt;/font&gt;&lt;font style=&quot;font-size:11.29px;font-family:Themed;color:#000000;direction:ltr;letter-spacing:0px;line-height:120%;opacity:1&quot;&gt;Görültüle&lt;/font&gt;&lt;font style=&quot;font-size:11.29px;font-family:Themed;color:#000000;direction:ltr;letter-spacing:0px;line-height:120%;opacity:1&quot;&gt; &lt;br&gt;&lt;/font&gt;&lt;/p&gt;&lt;/div&gt;" tags="Bağlayıcı" id="73">
          <mxCell style="vsdxID=109;edgeStyle=none;startArrow=none;endArrow=block;startSize=2;endSize=7;spacingTop=0;spacingBottom=0;spacingLeft=0;spacingRight=0;verticalAlign=middle;html=1;labelBackgroundColor=#ffffff;rounded=0;align=center;exitX=0.5;exitY=18.666666666666668;exitDx=0;exitDy=0;exitPerimeter=0;entryX=0.5;entryY=18.666666666666668;entryDx=0;entryDy=0;entryPerimeter=0;" parent="1" source="34" target="67" edge="1">
            <mxGeometry relative="1" as="geometry">
              <mxPoint x="-88" y="-2" as="offset" />
              <Array as="points" />
            </mxGeometry>
          </mxCell>
        </UserObject>
        <UserObject label="&lt;div style=&quot;font-size: 1px&quot;&gt;&lt;p style=&quot;text-align:center;margin-left:0;margin-right:0;margin-top:0px;margin-bottom:0px;text-indent:0;vertical-align:middle;direction:ltr;&quot;&gt;&lt;font style=&quot;font-size:11.29px;font-family:Calibri;color:#000000;direction:ltr;letter-spacing:0px;line-height:120%;opacity:1&quot;&gt;Yolcular&lt;/font&gt;&lt;font style=&quot;font-size:11.29px;font-family:Themed;color:#000000;direction:ltr;letter-spacing:0px;line-height:120%;opacity:1&quot;&gt;a&lt;/font&gt;&lt;font style=&quot;font-size:11.29px;font-family:Themed;color:#000000;direction:ltr;letter-spacing:0px;line-height:120%;opacity:1&quot;&gt; &lt;/font&gt;&lt;font style=&quot;font-size:11.29px;font-family:Themed;color:#000000;direction:ltr;letter-spacing:0px;line-height:120%;opacity:1&quot;&gt;Ekle&lt;/font&gt;&lt;font style=&quot;font-size:11.29px;font-family:Themed;color:#000000;direction:ltr;letter-spacing:0px;line-height:120%;opacity:1&quot;&gt;&amp;nbsp;/&lt;/font&gt;&lt;font style=&quot;font-size:11.29px;font-family:Themed;color:#000000;direction:ltr;letter-spacing:0px;line-height:120%;opacity:1&quot;&gt;Görültüle&lt;/font&gt;&lt;font style=&quot;font-size:11.29px;font-family:Themed;color:#000000;direction:ltr;letter-spacing:0px;line-height:120%;opacity:1&quot;&gt; &lt;br&gt;&lt;/font&gt;&lt;/p&gt;&lt;/div&gt;" tags="Bağlayıcı" id="74">
          <mxCell style="vsdxID=98;edgeStyle=none;startArrow=none;endArrow=block;startSize=2;endSize=7;spacingTop=0;spacingBottom=0;spacingLeft=0;spacingRight=0;verticalAlign=middle;html=1;labelBackgroundColor=#ffffff;rounded=0;align=center;exitX=0.5;exitY=17.666666666666668;exitDx=0;exitDy=0;exitPerimeter=0;" parent="1" source="34" target="66" edge="1">
            <mxGeometry relative="1" as="geometry">
              <mxPoint x="-80" y="-2" as="offset" />
              <Array as="points">
                <mxPoint x="1605" y="726" />
              </Array>
            </mxGeometry>
          </mxCell>
        </UserObject>
        <UserObject label="&lt;div style=&quot;font-size: 1px&quot;&gt;&lt;font style=&quot;font-size:11.29px;font-family:Calibri;color:#000000;direction:ltr;letter-spacing:0px;line-height:120%;opacity:1&quot;&gt;Uçuş&lt;/font&gt;&lt;font style=&quot;font-size:11.29px;font-family:Themed;color:#000000;direction:ltr;letter-spacing:0px;line-height:120%;opacity:1&quot;&gt;l&lt;/font&gt;&lt;font style=&quot;font-size:11.29px;font-family:Themed;color:#000000;direction:ltr;letter-spacing:0px;line-height:120%;opacity:1&quot;&gt;a&lt;/font&gt;&lt;font style=&quot;font-size:11.29px;font-family:Themed;color:#000000;direction:ltr;letter-spacing:0px;line-height:120%;opacity:1&quot;&gt;r&lt;/font&gt;&lt;font style=&quot;font-size:11.29px;font-family:Themed;color:#000000;direction:ltr;letter-spacing:0px;line-height:120%;opacity:1&quot;&gt;ı&lt;/font&gt;&lt;font style=&quot;font-size:11.29px;font-family:Themed;color:#000000;direction:ltr;letter-spacing:0px;line-height:120%;opacity:1&quot;&gt; &lt;/font&gt;&lt;font style=&quot;font-size:11.29px;font-family:Themed;color:#000000;direction:ltr;letter-spacing:0px;line-height:120%;opacity:1&quot;&gt; Ekle&lt;/font&gt;&lt;font style=&quot;font-size:11.29px;font-family:Themed;color:#000000;direction:ltr;letter-spacing:0px;line-height:120%;opacity:1&quot;&gt;&amp;nbsp;/&lt;/font&gt;&lt;font style=&quot;font-size:11.29px;font-family:Themed;color:#000000;direction:ltr;letter-spacing:0px;line-height:120%;opacity:1&quot;&gt;Görültüle&lt;/font&gt;&lt;font style=&quot;font-size:11.29px;font-family:Themed;color:#000000;direction:ltr;letter-spacing:0px;line-height:120%;opacity:1&quot;&gt; &lt;br&gt;&lt;/font&gt;&lt;/div&gt;" tags="Bağlayıcı" id="75">
          <mxCell style="vsdxID=92;edgeStyle=none;startArrow=none;endArrow=block;startSize=2;endSize=7;spacingTop=0;spacingBottom=0;spacingLeft=0;spacingRight=0;verticalAlign=middle;html=1;labelBackgroundColor=#ffffff;rounded=0;align=center;exitX=0.5;exitY=16.555555555555557;exitDx=0;exitDy=0;exitPerimeter=0;" parent="1" source="34" target="64" edge="1">
            <mxGeometry relative="1" as="geometry">
              <mxPoint x="-49" y="-2" as="offset" />
              <Array as="points">
                <mxPoint x="1130" y="686" />
              </Array>
            </mxGeometry>
          </mxCell>
        </UserObject>
        <UserObject label="&lt;div style=&quot;font-size: 1px&quot;&gt;&lt;font style=&quot;font-size:11.29px;font-family:Calibri;color:#000000;direction:ltr;letter-spacing:0px;line-height:120%;opacity:1&quot;&gt;Personel&lt;/font&gt;&lt;font style=&quot;font-size:11.29px;font-family:Themed;color:#000000;direction:ltr;letter-spacing:0px;line-height:120%;opacity:1&quot;&gt; &lt;/font&gt;&lt;font style=&quot;font-size:11.29px;font-family:Themed;color:#000000;direction:ltr;letter-spacing:0px;line-height:120%;opacity:1&quot;&gt; Ekle&lt;/font&gt;&lt;font style=&quot;font-size:11.29px;font-family:Themed;color:#000000;direction:ltr;letter-spacing:0px;line-height:120%;opacity:1&quot;&gt;/&lt;/font&gt;&lt;font style=&quot;font-size:11.29px;font-family:Themed;color:#000000;direction:ltr;letter-spacing:0px;line-height:120%;opacity:1&quot;&gt;Görültüle&lt;/font&gt;&lt;font style=&quot;font-size:11.29px;font-family:Themed;color:#000000;direction:ltr;letter-spacing:0px;line-height:120%;opacity:1&quot;&gt; &lt;/font&gt;&lt;font style=&quot;font-size:11.29px;font-family:Themed;color:#000000;direction:ltr;letter-spacing:0px;line-height:120%;opacity:1&quot;&gt;/Sorgula&lt;br&gt;&lt;/font&gt;&lt;/div&gt;" tags="Bağlayıcı" id="76">
          <mxCell style="vsdxID=91;edgeStyle=none;startArrow=none;endArrow=block;startSize=2;endSize=7;spacingTop=0;spacingBottom=0;spacingLeft=0;spacingRight=0;verticalAlign=middle;html=1;labelBackgroundColor=#ffffff;rounded=0;align=center;exitX=0.5;exitY=19.333333333333332;exitDx=0;exitDy=0;exitPerimeter=0;" parent="1" source="34" target="65" edge="1">
            <mxGeometry relative="1" as="geometry">
              <mxPoint x="-92" y="-2" as="offset" />
              <Array as="points">
                <mxPoint x="1481" y="778" />
              </Array>
            </mxGeometry>
          </mxCell>
        </UserObject>
        <UserObject label="&lt;div style=&quot;font-size: 1px&quot;&gt;&lt;font style=&quot;font-size:11.29px;font-family:Calibri;color:#000000;direction:ltr;letter-spacing:0px;line-height:120%;opacity:1&quot;&gt;Sefer&lt;/font&gt;&lt;font style=&quot;font-size:11.29px;font-family:Themed;color:#000000;direction:ltr;letter-spacing:0px;line-height:120%;opacity:1&quot;&gt;leri &lt;/font&gt;&lt;font style=&quot;font-size:11.29px;font-family:Themed;color:#000000;direction:ltr;letter-spacing:0px;line-height:120%;opacity:1&quot;&gt; Ekle&lt;/font&gt;&lt;font style=&quot;font-size:11.29px;font-family:Themed;color:#000000;direction:ltr;letter-spacing:0px;line-height:120%;opacity:1&quot;&gt;&amp;nbsp;/&lt;/font&gt;&lt;font style=&quot;font-size:11.29px;font-family:Themed;color:#000000;direction:ltr;letter-spacing:0px;line-height:120%;opacity:1&quot;&gt;Görültüle&lt;/font&gt;&lt;font style=&quot;font-size:11.29px;font-family:Themed;color:#000000;direction:ltr;letter-spacing:0px;line-height:120%;opacity:1&quot;&gt; &lt;br&gt;&lt;/font&gt;&lt;/div&gt;" tags="Bağlayıcı" id="77">
          <mxCell style="vsdxID=90;edgeStyle=none;startArrow=none;endArrow=block;startSize=2;endSize=7;spacingTop=0;spacingBottom=0;spacingLeft=0;spacingRight=0;verticalAlign=middle;html=1;labelBackgroundColor=#ffffff;rounded=0;align=center;exitX=0.5;exitY=15.777777777777779;exitDx=0;exitDy=0;exitPerimeter=0;" parent="1" source="34" target="63" edge="1">
            <mxGeometry relative="1" as="geometry">
              <mxPoint x="-37" y="-2" as="offset" />
              <Array as="points">
                <mxPoint x="944.17" y="655.67" />
              </Array>
            </mxGeometry>
          </mxCell>
        </UserObject>
        <UserObject label="&lt;div style=&quot;font-size: 1px&quot;&gt;&lt;font style=&quot;font-size:11.29px;font-family:Calibri;color:#000000;direction:ltr;letter-spacing:0px;line-height:120%;opacity:1&quot;&gt;Uçuşlları&lt;br/&gt;&lt;/font&gt;&lt;/div&gt;" tags="Bağlayıcı" id="78">
          <mxCell style="vsdxID=80;edgeStyle=none;dashed=1;startArrow=none;endArrow=open;startSize=2;endSize=7;spacingTop=0;spacingBottom=0;spacingLeft=0;spacingRight=0;verticalAlign=middle;html=1;labelBackgroundColor=#ffffff;rounded=0;align=center;exitX=0.5;exitY=13;exitDx=0;exitDy=0;exitPerimeter=0;" parent="1" source="17" target="56" edge="1">
            <mxGeometry relative="1" as="geometry">
              <mxPoint as="offset" />
              <Array as="points">
                <mxPoint x="536" y="550" />
              </Array>
            </mxGeometry>
          </mxCell>
        </UserObject>
        <UserObject label="&lt;div style=&quot;font-size: 1px&quot;&gt;&lt;font style=&quot;font-size:11.29px;font-family:Calibri;color:#000000;direction:ltr;letter-spacing:0px;line-height:120%;opacity:1&quot;&gt;Personel&lt;br/&gt;&lt;/font&gt;&lt;/div&gt;" tags="Bağlayıcı" id="79">
          <mxCell style="vsdxID=79;edgeStyle=none;startArrow=none;endArrow=block;startSize=2;endSize=7;spacingTop=0;spacingBottom=0;spacingLeft=0;spacingRight=0;verticalAlign=middle;html=1;labelBackgroundColor=#ffffff;rounded=0;align=center;exitX=0.5;exitY=12.11111111111111;exitDx=0;exitDy=0;exitPerimeter=0;" parent="1" source="39" target="57" edge="1">
            <mxGeometry relative="1" as="geometry">
              <mxPoint as="offset" />
              <Array as="points">
                <mxPoint x="1130" y="522" />
              </Array>
            </mxGeometry>
          </mxCell>
        </UserObject>
        <UserObject label="&lt;div style=&quot;font-size: 1px&quot;&gt;&lt;font style=&quot;font-size:11.29px;font-family:Calibri;color:#000000;direction:ltr;letter-spacing:0px;line-height:120%;opacity:1&quot;&gt;Personel&lt;br/&gt;&lt;/font&gt;&lt;/div&gt;" tags="Bağlayıcı" id="80">
          <mxCell style="vsdxID=78;edgeStyle=none;dashed=1;startArrow=none;endArrow=open;startSize=2;endSize=7;spacingTop=0;spacingBottom=0;spacingLeft=0;spacingRight=0;verticalAlign=middle;html=1;labelBackgroundColor=#ffffff;rounded=0;align=center;" parent="1" source="55" target="56" edge="1">
            <mxGeometry relative="1" as="geometry">
              <mxPoint as="offset" />
              <Array as="points">
                <mxPoint x="1481" y="478" />
                <mxPoint x="536" y="474" />
              </Array>
            </mxGeometry>
          </mxCell>
        </UserObject>
        <UserObject label="&lt;div style=&quot;font-size: 1px&quot;&gt;&lt;font style=&quot;font-size:11.29px;font-family:Calibri;color:#000000;direction:ltr;letter-spacing:0px;line-height:120%;opacity:1&quot;&gt;Personel Adı&lt;br/&gt;&lt;/font&gt;&lt;/div&gt;" tags="Bağlayıcı" id="81">
          <mxCell style="vsdxID=77;edgeStyle=none;startArrow=none;endArrow=block;startSize=2;endSize=7;spacingTop=0;spacingBottom=0;spacingLeft=0;spacingRight=0;verticalAlign=middle;html=1;labelBackgroundColor=#ffffff;rounded=0;align=center;" parent="1" source="56" target="55" edge="1">
            <mxGeometry relative="1" as="geometry">
              <mxPoint x="-1" as="offset" />
              <Array as="points">
                <mxPoint x="536" y="450" />
                <mxPoint x="1481" y="454" />
              </Array>
            </mxGeometry>
          </mxCell>
        </UserObject>
        <UserObject label="&lt;div style=&quot;font-size: 1px&quot;&gt;&lt;font style=&quot;font-size:11.29px;font-family:Calibri;color:#000000;direction:ltr;letter-spacing:0px;line-height:120%;opacity:1&quot;&gt;Sefer&lt;br/&gt;&lt;/font&gt;&lt;/div&gt;" tags="Bağlayıcı" id="83">
          <mxCell style="vsdxID=70;edgeStyle=none;dashed=1;startArrow=none;endArrow=open;startSize=2;endSize=7;spacingTop=0;spacingBottom=0;spacingLeft=0;spacingRight=0;verticalAlign=middle;html=1;labelBackgroundColor=#ffffff;rounded=0;align=center;exitX=0.5;exitY=3.7777777777777777;exitDx=0;exitDy=0;exitPerimeter=0;entryX=0.5;entryY=3.7777777777777777;entryDx=0;entryDy=0;entryPerimeter=0;" parent="1" source="2" target="12" edge="1">
            <mxGeometry relative="1" as="geometry">
              <mxPoint as="offset" />
              <Array as="points" />
            </mxGeometry>
          </mxCell>
        </UserObject>
        <UserObject label="&lt;div style=&quot;font-size: 1px&quot;&gt;&lt;font style=&quot;font-size:11.29px;font-family:Calibri;color:#000000;direction:ltr;letter-spacing:0px;line-height:120%;opacity:1&quot;&gt;Personel Girişi&lt;br/&gt;&lt;/font&gt;&lt;/div&gt;" tags="Bağlayıcı" id="84">
          <mxCell style="vsdxID=69;edgeStyle=none;startArrow=none;endArrow=block;startSize=2;endSize=7;spacingTop=0;spacingBottom=0;spacingLeft=0;spacingRight=0;verticalAlign=middle;html=1;labelBackgroundColor=#ffffff;rounded=0;align=center;exitX=0.5;exitY=6;exitDx=0;exitDy=0;exitPerimeter=0;entryX=0.5;entryY=6;entryDx=0;entryDy=0;entryPerimeter=0;" parent="1" source="29" target="39" edge="1">
            <mxGeometry relative="1" as="geometry">
              <mxPoint as="offset" />
              <Array as="points" />
            </mxGeometry>
          </mxCell>
        </UserObject>
        <UserObject label="&lt;div style=&quot;font-size: 1px&quot;&gt;&lt;font style=&quot;font-size:11.29px;font-family:Calibri;color:#000000;direction:ltr;letter-spacing:0px;line-height:120%;opacity:1&quot;&gt;Yönetici Girişi&lt;br/&gt;&lt;/font&gt;&lt;/div&gt;" tags="Bağlayıcı" id="85">
          <mxCell style="vsdxID=63;edgeStyle=none;startArrow=none;endArrow=block;startSize=2;endSize=7;spacingTop=0;spacingBottom=0;spacingLeft=0;spacingRight=0;verticalAlign=middle;html=1;labelBackgroundColor=#ffffff;rounded=0;align=center;exitX=0.5;exitY=4.333333333333333;exitDx=0;exitDy=0;exitPerimeter=0;entryX=0.5;entryY=4.333333333333333;entryDx=0;entryDy=0;entryPerimeter=0;" parent="1" source="29" target="34" edge="1">
            <mxGeometry relative="1" as="geometry">
              <mxPoint as="offset" />
              <Array as="points" />
            </mxGeometry>
          </mxCell>
        </UserObject>
        <UserObject label="&lt;div style=&quot;font-size: 1px&quot;&gt;&lt;font style=&quot;font-size:11.29px;font-family:Calibri;color:#000000;direction:ltr;letter-spacing:0px;line-height:120%;opacity:1&quot;&gt;Yolcu Girişi&lt;br/&gt;&lt;/font&gt;&lt;/div&gt;" tags="Bağlayıcı" id="86">
          <mxCell style="vsdxID=57;edgeStyle=none;startArrow=none;endArrow=block;startSize=2;endSize=7;spacingTop=0;spacingBottom=0;spacingLeft=0;spacingRight=0;verticalAlign=middle;html=1;labelBackgroundColor=#ffffff;rounded=0;align=center;exitX=0.5;exitY=7.333333333333333;exitDx=0;exitDy=0;exitPerimeter=0;entryX=0.5;entryY=7.333333333333333;entryDx=0;entryDy=0;entryPerimeter=0;" parent="1" source="29" target="12" edge="1">
            <mxGeometry relative="1" as="geometry">
              <mxPoint as="offset" />
              <Array as="points" />
            </mxGeometry>
          </mxCell>
        </UserObject>
        <UserObject label="&lt;div style=&quot;font-size: 1px&quot;&gt;&lt;font style=&quot;font-size:11.29px;font-family:Calibri;color:#000000;direction:ltr;letter-spacing:0px;line-height:120%;opacity:1&quot;&gt;Giriş Yap&lt;br/&gt;&lt;/font&gt;&lt;/div&gt;" tags="Bağlayıcı" id="88">
          <mxCell style="vsdxID=31;edgeStyle=none;startArrow=none;endArrow=block;startSize=2;endSize=7;spacingTop=0;spacingBottom=0;spacingLeft=0;spacingRight=0;verticalAlign=middle;html=1;labelBackgroundColor=#ffffff;rounded=0;align=center;exitX=0.5;exitY=2.3333333333333335;exitDx=0;exitDy=0;exitPerimeter=0;entryX=0.5;entryY=2.3333333333333335;entryDx=0;entryDy=0;entryPerimeter=0;" parent="1" source="7" target="29" edge="1">
            <mxGeometry relative="1" as="geometry">
              <mxPoint as="offset" />
              <Array as="points" />
            </mxGeometry>
          </mxCell>
        </UserObject>
        <UserObject label="&lt;div style=&quot;font-size: 1px&quot;&gt;&lt;font style=&quot;font-size:11.29px;font-family:Calibri;color:#000000;direction:ltr;letter-spacing:0px;line-height:120%;opacity:1&quot;&gt;Sefer Bul&lt;br/&gt;&lt;/font&gt;&lt;/div&gt;" tags="Bağlayıcı" id="89">
          <mxCell style="vsdxID=32;edgeStyle=none;startArrow=none;endArrow=block;startSize=2;endSize=7;spacingTop=0;spacingBottom=0;spacingLeft=0;spacingRight=0;verticalAlign=middle;html=1;labelBackgroundColor=#ffffff;rounded=0;align=center;" parent="1" source="28" target="49" edge="1">
            <mxGeometry relative="1" as="geometry">
              <mxPoint x="-1" as="offset" />
              <Array as="points">
                <mxPoint x="736" y="166" />
                <mxPoint x="943.33" y="166" />
              </Array>
            </mxGeometry>
          </mxCell>
        </UserObject>
        <UserObject label="&lt;div style=&quot;font-size: 1px&quot;&gt;&lt;font style=&quot;font-size:11.29px;font-family:Calibri;color:#000000;direction:ltr;letter-spacing:0px;line-height:120%;opacity:1&quot;&gt;Uçuş Seç ve ödeme yap&lt;br&gt;&lt;/font&gt;&lt;/div&gt;" tags="Bağlayıcı" id="90">
          <mxCell style="vsdxID=38;edgeStyle=none;startArrow=none;endArrow=block;startSize=2;endSize=7;spacingTop=0;spacingBottom=0;spacingLeft=0;spacingRight=0;verticalAlign=middle;html=1;labelBackgroundColor=#ffffff;rounded=0;align=center;" parent="1" source="28" target="50" edge="1">
            <mxGeometry relative="1" as="geometry">
              <mxPoint x="-53" y="2" as="offset" />
              <Array as="points">
                <mxPoint x="736" y="262" />
                <mxPoint x="1129.17" y="262" />
              </Array>
            </mxGeometry>
          </mxCell>
        </UserObject>
      </root>
    </mxGraphModel>
  </diagram>
</mxfile>
